<svg xmlns="http://www.w3.org/2000/svg" xmlns:xlink="http://www.w3.org/1999/xlink" contentStyleType="text/css" data-diagram-type="CLASS" height="1049px" preserveAspectRatio="none" style="width:705px;height:1049px;background:#FFFFFF;" version="1.1" viewBox="0 0 705 1049" width="705px" zoomAndPan="magnify"><defs/><g><!--class OfficeManager--><g class="entity" data-entity="OfficeManager" data-source-line="11" data-uid="ent0002" id="entity_OfficeManager"><rect fill="#F1F1F1" height="179.9063" rx="2.5" ry="2.5" style="stroke:#181818;stroke-width:0.5;" width="426.7568" x="74.16" y="190.44"/><ellipse cx="233.9603" cy="206.44" fill="#ADD1B2" rx="11" ry="11" style="stroke:#181818;stroke-width:1;"/><path d="M236.4334,212.5831 Q235.8524,212.8819 235.2132,213.0313 Q234.5741,213.1807 233.8685,213.1807 Q231.3617,213.1807 230.0418,211.5289 Q228.722,209.877 228.722,206.7559 Q228.722,203.6265 230.0418,201.9747 Q231.3617,200.3228 233.8685,200.3228 Q234.5741,200.3228 235.2215,200.4722 Q235.869,200.6216 236.4334,200.9205 L236.4334,203.6431 Q235.8026,203.0621 235.2091,202.7923 Q234.6156,202.5225 233.9847,202.5225 Q232.64,202.5225 231.9552,203.5892 Q231.2704,204.6558 231.2704,206.7559 Q231.2704,208.8477 231.9552,209.9144 Q232.64,210.981 233.9847,210.981 Q234.6156,210.981 235.2091,210.7112 Q235.8026,210.4415 236.4334,209.8604 Z " fill="#000000"/><text fill="#000000" font-family="sans-serif" font-size="14" lengthAdjust="spacing" textLength="98.6563" x="254.4603" y="211.731">OfficeManager</text><line style="stroke:#181818;stroke-width:0.5;" x1="75.16" x2="499.9168" y1="222.44" y2="222.44"/><text fill="#000000" font-family="sans-serif" font-size="14" lengthAdjust="spacing" textLength="66.7666" x="80.16" y="239.9752">+id: UUID</text><text fill="#000000" font-family="sans-serif" font-size="14" lengthAdjust="spacing" textLength="126.1982" x="80.16" y="256.4634">+firstName: String</text><text fill="#000000" font-family="sans-serif" font-size="14" lengthAdjust="spacing" textLength="123.0537" x="80.16" y="272.9517">+lastName: String</text><text fill="#000000" font-family="sans-serif" font-size="14" lengthAdjust="spacing" textLength="96.6533" x="80.16" y="289.44">+email: String</text><text fill="#000000" font-family="sans-serif" font-size="14" lengthAdjust="spacing" textLength="102.5459" x="80.16" y="305.9283">+phone: String</text><line style="stroke:#181818;stroke-width:0.5;" x1="75.16" x2="499.9168" y1="312.8814" y2="312.8814"/><text fill="#000000" font-family="sans-serif" font-size="14" lengthAdjust="spacing" textLength="187.373" x="80.16" y="330.4166">+registerDentist(d: Dentist)</text><text fill="#000000" font-family="sans-serif" font-size="14" lengthAdjust="spacing" textLength="183.0664" x="80.16" y="346.9048">+registerPatient(p: Patient)</text><text fill="#000000" font-family="sans-serif" font-size="14" lengthAdjust="spacing" textLength="414.7568" x="80.16" y="363.3931">+bookAppointment(req: AppointmentRequest): Appointment</text></g><!--class User--><g class="entity" data-entity="User" data-source-line="22" data-uid="ent0003" id="entity_User"><rect fill="#F1F1F1" height="122.4414" rx="2.5" ry="2.5" style="stroke:#181818;stroke-width:0.5;" width="170.5459" x="202.27" y="7"/><ellipse cx="268.1103" cy="23" fill="#ADD1B2" rx="11" ry="11" style="stroke:#181818;stroke-width:1;"/><path d="M270.5835,29.1431 Q270.0024,29.4419 269.3633,29.5913 Q268.7241,29.7407 268.0185,29.7407 Q265.5117,29.7407 264.1919,28.0889 Q262.8721,26.437 262.8721,23.3159 Q262.8721,20.1865 264.1919,18.5347 Q265.5117,16.8828 268.0185,16.8828 Q268.7241,16.8828 269.3716,17.0322 Q270.019,17.1816 270.5835,17.4805 L270.5835,20.2031 Q269.9526,19.6221 269.3591,19.3523 Q268.7656,19.0825 268.1347,19.0825 Q266.79,19.0825 266.1052,20.1492 Q265.4204,21.2158 265.4204,23.3159 Q265.4204,25.4077 266.1052,26.4744 Q266.79,27.541 268.1347,27.541 Q268.7656,27.541 269.3591,27.2712 Q269.9526,27.0015 270.5835,26.4204 Z " fill="#000000"/><text fill="#000000" font-family="sans-serif" font-size="14" lengthAdjust="spacing" textLength="30.3652" x="288.6103" y="28.291">User</text><line style="stroke:#181818;stroke-width:0.5;" x1="203.27" x2="371.8159" y1="39" y2="39"/><text fill="#000000" font-family="sans-serif" font-size="14" lengthAdjust="spacing" textLength="96.1064" x="208.27" y="56.5352">+userId: UUID</text><text fill="#000000" font-family="sans-serif" font-size="14" lengthAdjust="spacing" textLength="96.6533" x="208.27" y="73.0234">+email: String</text><text fill="#000000" font-family="sans-serif" font-size="14" lengthAdjust="spacing" textLength="158.5459" x="208.27" y="89.5117">+passwordHash: String</text><text fill="#000000" font-family="sans-serif" font-size="14" lengthAdjust="spacing" textLength="75.4619" x="208.27" y="106">+role: Role</text><text fill="#000000" font-family="sans-serif" font-size="14" lengthAdjust="spacing" textLength="146.6924" x="208.27" y="122.4883">+lastLogin: DateTime</text></g><!--class Dentist--><g class="entity" data-entity="Dentist" data-source-line="30" data-uid="ent0004" id="entity_Dentist"><rect fill="#F1F1F1" height="155.418" rx="2.5" ry="2.5" style="stroke:#181818;stroke-width:0.5;" width="165.0771" x="7" y="459.59"/><ellipse cx="60.9731" cy="475.59" fill="#ADD1B2" rx="11" ry="11" style="stroke:#181818;stroke-width:1;"/><path d="M63.4463,481.7331 Q62.8652,482.0319 62.2261,482.1813 Q61.5869,482.3307 60.8813,482.3307 Q58.3745,482.3307 57.0547,480.6789 Q55.7349,479.027 55.7349,475.9059 Q55.7349,472.7765 57.0547,471.1247 Q58.3745,469.4728 60.8813,469.4728 Q61.5869,469.4728 62.2344,469.6222 Q62.8818,469.7716 63.4463,470.0705 L63.4463,472.7931 Q62.8154,472.2121 62.2219,471.9423 Q61.6284,471.6725 60.9976,471.6725 Q59.6528,471.6725 58.968,472.7392 Q58.2832,473.8058 58.2832,475.9059 Q58.2832,477.9977 58.968,479.0644 Q59.6528,480.131 60.9976,480.131 Q61.6284,480.131 62.2219,479.8612 Q62.8154,479.5915 63.4463,479.0104 Z " fill="#000000"/><text fill="#000000" font-family="sans-serif" font-size="14" lengthAdjust="spacing" textLength="48.6309" x="81.4731" y="480.881">Dentist</text><line style="stroke:#181818;stroke-width:0.5;" x1="8" x2="171.0771" y1="491.59" y2="491.59"/><text fill="#000000" font-family="sans-serif" font-size="14" lengthAdjust="spacing" textLength="113.709" x="13" y="509.1252">+dentistId: UUID</text><text fill="#000000" font-family="sans-serif" font-size="14" lengthAdjust="spacing" textLength="126.1982" x="13" y="525.6134">+firstName: String</text><text fill="#000000" font-family="sans-serif" font-size="14" lengthAdjust="spacing" textLength="123.0537" x="13" y="542.1017">+lastName: String</text><text fill="#000000" font-family="sans-serif" font-size="14" lengthAdjust="spacing" textLength="102.5459" x="13" y="558.59">+phone: String</text><text fill="#000000" font-family="sans-serif" font-size="14" lengthAdjust="spacing" textLength="96.6533" x="13" y="575.0783">+email: String</text><text fill="#000000" font-family="sans-serif" font-size="14" lengthAdjust="spacing" textLength="153.0771" x="13" y="591.5666">+specialization: String</text><text fill="#000000" font-family="sans-serif" font-size="14" lengthAdjust="spacing" textLength="125.8496" x="13" y="608.0548">+isActive: Boolean</text></g><!--class Patient--><g class="entity" data-entity="Patient" data-source-line="40" data-uid="ent0005" id="entity_Patient"><rect fill="#F1F1F1" height="179.9063" rx="2.5" ry="2.5" style="stroke:#181818;stroke-width:0.5;" width="222.2324" x="374.42" y="447.34"/><ellipse cx="458.0474" cy="463.34" fill="#ADD1B2" rx="11" ry="11" style="stroke:#181818;stroke-width:1;"/><path d="M460.5206,469.4831 Q459.9395,469.7819 459.3004,469.9313 Q458.6612,470.0807 457.9556,470.0807 Q455.4488,470.0807 454.129,468.4289 Q452.8092,466.777 452.8092,463.6559 Q452.8092,460.5265 454.129,458.8747 Q455.4488,457.2228 457.9556,457.2228 Q458.6612,457.2228 459.3087,457.3722 Q459.9561,457.5216 460.5206,457.8205 L460.5206,460.5431 Q459.8897,459.9621 459.2962,459.6923 Q458.7027,459.4225 458.0719,459.4225 Q456.7271,459.4225 456.0423,460.4892 Q455.3575,461.5558 455.3575,463.6559 Q455.3575,465.7477 456.0423,466.8144 Q456.7271,467.881 458.0719,467.881 Q458.7027,467.881 459.2962,467.6112 Q459.8897,467.3415 460.5206,466.7604 Z " fill="#000000"/><text fill="#000000" font-family="sans-serif" font-size="14" lengthAdjust="spacing" textLength="46.4775" x="478.5474" y="468.631">Patient</text><line style="stroke:#181818;stroke-width:0.5;" x1="375.42" x2="595.6524" y1="479.34" y2="479.34"/><text fill="#000000" font-family="sans-serif" font-size="14" lengthAdjust="spacing" textLength="114.3037" x="380.42" y="496.8752">+patientId: UUID</text><text fill="#000000" font-family="sans-serif" font-size="14" lengthAdjust="spacing" textLength="126.1982" x="380.42" y="513.3634">+firstName: String</text><text fill="#000000" font-family="sans-serif" font-size="14" lengthAdjust="spacing" textLength="123.0537" x="380.42" y="529.8517">+lastName: String</text><text fill="#000000" font-family="sans-serif" font-size="14" lengthAdjust="spacing" textLength="102.5459" x="380.42" y="546.34">+phone: String</text><text fill="#000000" font-family="sans-serif" font-size="14" lengthAdjust="spacing" textLength="96.6533" x="380.42" y="562.8283">+email: String</text><text fill="#000000" font-family="sans-serif" font-size="14" lengthAdjust="spacing" textLength="165.4023" x="380.42" y="579.3166">+mailingAddress: String</text><text fill="#000000" font-family="sans-serif" font-size="14" lengthAdjust="spacing" textLength="128.5977" x="380.42" y="595.8048">+dateOfBirth: Date</text><line style="stroke:#181818;stroke-width:0.5;" x1="375.42" x2="595.6524" y1="602.758" y2="602.758"/><text fill="#000000" font-family="sans-serif" font-size="14" lengthAdjust="spacing" textLength="210.2324" x="380.42" y="620.2931">+hasOutstandingBill(): Boolean</text></g><!--class Surgery--><g class="entity" data-entity="Surgery" data-source-line="51" data-uid="ent0006" id="entity_Surgery"><rect fill="#F1F1F1" height="105.9531" rx="2.5" ry="2.5" style="stroke:#181818;stroke-width:0.5;" width="129.8789" x="206.6" y="484.32"/><ellipse cx="242.4573" cy="500.32" fill="#ADD1B2" rx="11" ry="11" style="stroke:#181818;stroke-width:1;"/><path d="M244.9305,506.4631 Q244.3494,506.7619 243.7103,506.9113 Q243.0711,507.0607 242.3655,507.0607 Q239.8587,507.0607 238.5389,505.4089 Q237.219,503.757 237.219,500.6359 Q237.219,497.5065 238.5389,495.8547 Q239.8587,494.2028 242.3655,494.2028 Q243.0711,494.2028 243.7186,494.3522 Q244.366,494.5016 244.9305,494.8005 L244.9305,497.5231 Q244.2996,496.9421 243.7061,496.6723 Q243.1126,496.4025 242.4817,496.4025 Q241.137,496.4025 240.4522,497.4692 Q239.7674,498.5358 239.7674,500.6359 Q239.7674,502.7277 240.4522,503.7944 Q241.137,504.861 242.4817,504.861 Q243.1126,504.861 243.7061,504.5912 Q244.2996,504.3215 244.9305,503.7404 Z " fill="#000000"/><text fill="#000000" font-family="sans-serif" font-size="14" lengthAdjust="spacing" textLength="51.5293" x="261.0923" y="505.611">Surgery</text><line style="stroke:#181818;stroke-width:0.5;" x1="207.6" x2="335.4789" y1="516.32" y2="516.32"/><text fill="#000000" font-family="sans-serif" font-size="14" lengthAdjust="spacing" textLength="117.8789" x="212.6" y="533.8552">+surgeryId: UUID</text><text fill="#000000" font-family="sans-serif" font-size="14" lengthAdjust="spacing" textLength="97.248" x="212.6" y="550.3434">+name: String</text><text fill="#000000" font-family="sans-serif" font-size="14" lengthAdjust="spacing" textLength="113.1143" x="212.6" y="566.8317">+address: String</text><text fill="#000000" font-family="sans-serif" font-size="14" lengthAdjust="spacing" textLength="102.5459" x="212.6" y="583.32">+phone: String</text></g><!--class Appointment--><g class="entity" data-entity="Appointment" data-source-line="58" data-uid="ent0007" id="entity_Appointment"><rect fill="#F1F1F1" height="138.9297" rx="2.5" ry="2.5" style="stroke:#181818;stroke-width:0.5;" width="203.3721" x="169.85" y="704.25"/><ellipse cx="222.9618" cy="720.25" fill="#ADD1B2" rx="11" ry="11" style="stroke:#181818;stroke-width:1;"/><path d="M225.435,726.3931 Q224.8539,726.6919 224.2147,726.8413 Q223.5756,726.9907 222.87,726.9907 Q220.3632,726.9907 219.0434,725.3389 Q217.7235,723.687 217.7235,720.5659 Q217.7235,717.4365 219.0434,715.7847 Q220.3632,714.1328 222.87,714.1328 Q223.5756,714.1328 224.223,714.2822 Q224.8705,714.4316 225.435,714.7305 L225.435,717.4531 Q224.8041,716.8721 224.2106,716.6023 Q223.6171,716.3325 222.9862,716.3325 Q221.6415,716.3325 220.9567,717.3992 Q220.2719,718.4658 220.2719,720.5659 Q220.2719,722.6577 220.9567,723.7244 Q221.6415,724.791 222.9862,724.791 Q223.6171,724.791 224.2106,724.5212 Q224.8041,724.2515 225.435,723.6704 Z " fill="#000000"/><text fill="#000000" font-family="sans-serif" font-size="14" lengthAdjust="spacing" textLength="88.6484" x="243.4618" y="725.541">Appointment</text><line style="stroke:#181818;stroke-width:0.5;" x1="170.85" x2="372.2221" y1="736.25" y2="736.25"/><text fill="#000000" font-family="sans-serif" font-size="14" lengthAdjust="spacing" textLength="153.4736" x="175.85" y="753.7852">+appointmentId: UUID</text><text fill="#000000" font-family="sans-serif" font-size="14" lengthAdjust="spacing" textLength="148.3604" x="175.85" y="770.2734">+dateTime: DateTime</text><text fill="#000000" font-family="sans-serif" font-size="14" lengthAdjust="spacing" textLength="191.3721" x="175.85" y="786.7617">+status: AppointmentStatus</text><text fill="#000000" font-family="sans-serif" font-size="14" lengthAdjust="spacing" textLength="150.1855" x="175.85" y="803.25">+createdAt: DateTime</text><text fill="#000000" font-family="sans-serif" font-size="14" lengthAdjust="spacing" textLength="155.7979" x="175.85" y="819.7383">+updatedAt: DateTime</text><text fill="#000000" font-family="sans-serif" font-size="14" lengthAdjust="spacing" textLength="97.4189" x="175.85" y="836.2266">+notes: String</text></g><!--class Bill--><g class="entity" data-entity="Bill" data-source-line="67" data-uid="ent0008" id="entity_Bill"><rect fill="#F1F1F1" height="138.9297" rx="2.5" ry="2.5" style="stroke:#181818;stroke-width:0.5;" width="155.5273" x="409.77" y="704.25"/><ellipse cx="473.187" cy="720.25" fill="#ADD1B2" rx="11" ry="11" style="stroke:#181818;stroke-width:1;"/><path d="M475.6601,726.3931 Q475.0791,726.6919 474.4399,726.8413 Q473.8008,726.9907 473.0952,726.9907 Q470.5884,726.9907 469.2685,725.3389 Q467.9487,723.687 467.9487,720.5659 Q467.9487,717.4365 469.2685,715.7847 Q470.5884,714.1328 473.0952,714.1328 Q473.8008,714.1328 474.4482,714.2822 Q475.0957,714.4316 475.6601,714.7305 L475.6601,717.4531 Q475.0293,716.8721 474.4358,716.6023 Q473.8423,716.3325 473.2114,716.3325 Q471.8667,716.3325 471.1819,717.3992 Q470.4971,718.4658 470.4971,720.5659 Q470.4971,722.6577 471.1819,723.7244 Q471.8667,724.791 473.2114,724.791 Q473.8423,724.791 474.4358,724.5212 Q475.0293,724.2515 475.6601,723.6704 Z " fill="#000000"/><text fill="#000000" font-family="sans-serif" font-size="14" lengthAdjust="spacing" textLength="20.1934" x="493.687" y="725.541">Bill</text><line style="stroke:#181818;stroke-width:0.5;" x1="410.77" x2="564.2973" y1="736.25" y2="736.25"/><text fill="#000000" font-family="sans-serif" font-size="14" lengthAdjust="spacing" textLength="87.7051" x="415.77" y="753.7852">+billId: UUID</text><text fill="#000000" font-family="sans-serif" font-size="14" lengthAdjust="spacing" textLength="114.3037" x="415.77" y="770.2734">+patientId: UUID</text><text fill="#000000" font-family="sans-serif" font-size="14" lengthAdjust="spacing" textLength="126.3555" x="415.77" y="786.7617">+amount: Decimal</text><text fill="#000000" font-family="sans-serif" font-size="14" lengthAdjust="spacing" textLength="122.917" x="415.77" y="803.25">+status: BillStatus</text><text fill="#000000" font-family="sans-serif" font-size="14" lengthAdjust="spacing" textLength="143.5273" x="415.77" y="819.7383">+issuedAt: DateTime</text><text fill="#000000" font-family="sans-serif" font-size="14" lengthAdjust="spacing" textLength="135.2148" x="415.77" y="836.2266">+paidAt: DateTime?</text></g><!--class AppointmentRequest--><g class="entity" data-entity="AppointmentRequest" data-source-line="76" data-uid="ent0009" id="entity_AppointmentRequest"><rect fill="#F1F1F1" height="122.4414" rx="2.5" ry="2.5" style="stroke:#181818;stroke-width:0.5;" width="278.6699" x="132.2" y="920.18"/><ellipse cx="195.7981" cy="936.18" fill="#ADD1B2" rx="11" ry="11" style="stroke:#181818;stroke-width:1;"/><path d="M198.2713,942.3231 Q197.6902,942.6219 197.0511,942.7713 Q196.4119,942.9207 195.7063,942.9207 Q193.1995,942.9207 191.8797,941.2689 Q190.5599,939.617 190.5599,936.4959 Q190.5599,933.3665 191.8797,931.7147 Q193.1995,930.0628 195.7063,930.0628 Q196.4119,930.0628 197.0594,930.2122 Q197.7068,930.3616 198.2713,930.6605 L198.2713,933.3831 Q197.6404,932.8021 197.0469,932.5323 Q196.4534,932.2625 195.8226,932.2625 Q194.4778,932.2625 193.793,933.3292 Q193.1082,934.3958 193.1082,936.4959 Q193.1082,938.5877 193.793,939.6544 Q194.4778,940.721 195.8226,940.721 Q196.4534,940.721 197.0469,940.4512 Q197.6404,940.1815 198.2713,939.6004 Z " fill="#000000"/><text fill="#000000" font-family="sans-serif" font-size="14" lengthAdjust="spacing" textLength="142.9736" x="216.2981" y="941.471">AppointmentRequest</text><line style="stroke:#181818;stroke-width:0.5;" x1="133.2" x2="409.8699" y1="952.18" y2="952.18"/><text fill="#000000" font-family="sans-serif" font-size="14" lengthAdjust="spacing" textLength="117.9541" x="138.2" y="969.7152">+requestId: UUID</text><text fill="#000000" font-family="sans-serif" font-size="14" lengthAdjust="spacing" textLength="114.3037" x="138.2" y="986.2034">+patientId: UUID</text><text fill="#000000" font-family="sans-serif" font-size="14" lengthAdjust="spacing" textLength="266.6699" x="138.2" y="1002.6917">+preferredDateTimes: List&lt;DateTime&gt;</text><text fill="#000000" font-family="sans-serif" font-size="14" lengthAdjust="spacing" textLength="123.7852" x="138.2" y="1019.18">+surgeryId: UUID?</text><text fill="#000000" font-family="sans-serif" font-size="14" lengthAdjust="spacing" textLength="131.168" x="138.2" y="1035.6683">+createdVia: String</text></g><!--class AppointmentStatus--><g class="entity" data-entity="AppointmentStatus" data-source-line="84" data-uid="ent0010" id="entity_AppointmentStatus"><rect fill="#F1F1F1" height="105.9531" rx="2.5" ry="2.5" style="stroke:#181818;stroke-width:0.5;" width="162.2178" x="407.43" y="15.24"/><ellipse cx="422.43" cy="31.24" fill="#EB937F" rx="11" ry="11" style="stroke:#181818;stroke-width:1;"/><path d="M426.0443,37.74 L418.3245,37.74 L418.3245,25.3469 L426.0443,25.3469 L426.0443,27.5051 L420.7733,27.5051 L420.7733,30.178 L425.5462,30.178 L425.5462,32.3362 L420.7733,32.3362 L420.7733,35.5818 L426.0443,35.5818 Z " fill="#000000"/><text fill="#000000" font-family="sans-serif" font-size="14" lengthAdjust="spacing" textLength="130.2178" x="436.43" y="36.531">AppointmentStatus</text><line style="stroke:#181818;stroke-width:0.5;" x1="408.43" x2="568.6478" y1="47.24" y2="47.24"/><text fill="#000000" font-family="sans-serif" font-size="14" lengthAdjust="spacing" textLength="80.8281" x="413.43" y="64.7752">SCHEDULED</text><text fill="#000000" font-family="sans-serif" font-size="14" lengthAdjust="spacing" textLength="79.9668" x="413.43" y="81.2634">CANCELLED</text><text fill="#000000" font-family="sans-serif" font-size="14" lengthAdjust="spacing" textLength="82.3389" x="413.43" y="97.7517">COMPLETED</text><text fill="#000000" font-family="sans-serif" font-size="14" lengthAdjust="spacing" textLength="60.6484" x="413.43" y="114.24">PENDING</text></g><!--class BillStatus--><g class="entity" data-entity="BillStatus" data-source-line="91" data-uid="ent0011" id="entity_BillStatus"><rect fill="#F1F1F1" height="89.4648" rx="2.5" ry="2.5" style="stroke:#181818;stroke-width:0.5;" width="93.7627" x="604.66" y="23.48"/><ellipse cx="619.66" cy="39.48" fill="#EB937F" rx="11" ry="11" style="stroke:#181818;stroke-width:1;"/><path d="M623.2743,45.98 L615.5545,45.98 L615.5545,33.5869 L623.2743,33.5869 L623.2743,35.7451 L618.0033,35.7451 L618.0033,38.418 L622.7762,38.418 L622.7762,40.5762 L618.0033,40.5762 L618.0033,43.8218 L623.2743,43.8218 Z " fill="#000000"/><text fill="#000000" font-family="sans-serif" font-size="14" lengthAdjust="spacing" textLength="61.7627" x="633.66" y="44.771">BillStatus</text><line style="stroke:#181818;stroke-width:0.5;" x1="605.66" x2="697.4227" y1="55.48" y2="55.48"/><text fill="#000000" font-family="sans-serif" font-size="14" lengthAdjust="spacing" textLength="51.96" x="610.66" y="73.0152">UNPAID</text><text fill="#000000" font-family="sans-serif" font-size="14" lengthAdjust="spacing" textLength="31.917" x="610.66" y="89.5034">PAID</text><text fill="#000000" font-family="sans-serif" font-size="14" lengthAdjust="spacing" textLength="60.6484" x="610.66" y="105.9917">PENDING</text></g><!--link OfficeManager to Dentist--><g class="link" data-entity-1="OfficeManager" data-entity-2="Dentist" data-source-line="97" data-uid="lnk12" id="link_OfficeManager_Dentist"><path codeLine="97" d="M218.29,370.54 C195.76,399.54 170.97,431.46 149.21,459.48" fill="none" id="OfficeManager-Dentist" style="stroke:#181818;stroke-width:1;"/><text fill="#000000" font-family="sans-serif" font-size="13" lengthAdjust="spacing" textLength="55.104" x="195.48" y="413.9084">registers</text><text fill="#000000" font-family="sans-serif" font-size="13" lengthAdjust="spacing" textLength="8.2202" x="204.4618" y="390.902">1</text><text fill="#000000" font-family="sans-serif" font-size="13" lengthAdjust="spacing" textLength="22.7119" x="131.8829" y="448.9312">0..*</text></g><!--link OfficeManager to Patient--><g class="link" data-entity-1="OfficeManager" data-entity-2="Patient" data-source-line="98" data-uid="lnk13" id="link_OfficeManager_Patient"><path codeLine="98" d="M356.79,370.54 C376.08,395.38 397.04,422.36 416.33,447.19" fill="none" id="OfficeManager-Patient" style="stroke:#181818;stroke-width:1;"/><text fill="#000000" font-family="sans-serif" font-size="13" lengthAdjust="spacing" textLength="55.104" x="393.48" y="413.9084">registers</text><text fill="#000000" font-family="sans-serif" font-size="13" lengthAdjust="spacing" textLength="8.2202" x="353.9985" y="390.902">1</text><text fill="#000000" font-family="sans-serif" font-size="13" lengthAdjust="spacing" textLength="22.7119" x="387.7174" y="436.6885">0..*</text></g><!--link Patient to Appointment--><g class="link" data-entity-1="Patient" data-entity-2="Appointment" data-source-line="99" data-uid="lnk14" id="link_Patient_Appointment"><path codeLine="99" d="M404.02,627.59 C380.87,652.95 356.03,680.16 334.19,704.09" fill="none" id="Patient-Appointment" style="stroke:#181818;stroke-width:1;"/><text fill="#000000" font-family="sans-serif" font-size="13" lengthAdjust="spacing" textLength="82.8623" x="373.12" y="670.8184">requests/has</text><text fill="#000000" font-family="sans-serif" font-size="13" lengthAdjust="spacing" textLength="8.2202" x="389.2142" y="647.9639">1</text><text fill="#000000" font-family="sans-serif" font-size="13" lengthAdjust="spacing" textLength="22.7119" x="317.5535" y="693.7209">0..*</text></g><!--link Dentist to Appointment--><g class="link" data-entity-1="Dentist" data-entity-2="Appointment" data-source-line="100" data-uid="lnk15" id="link_Dentist_Appointment"><path codeLine="100" d="M143.4,615.33 C157.46,634.79 172.81,655.48 187.54,674.25 C195.17,683.97 203.4,694.06 211.62,703.91" fill="none" id="Dentist-Appointment" style="stroke:#181818;stroke-width:1;"/><text fill="#000000" font-family="sans-serif" font-size="13" lengthAdjust="spacing" textLength="71.9951" x="188.54" y="670.8184">assignedTo</text><text fill="#000000" font-family="sans-serif" font-size="13" lengthAdjust="spacing" textLength="8.2202" x="139.8506" y="635.5298">1</text><text fill="#000000" font-family="sans-serif" font-size="13" lengthAdjust="spacing" textLength="22.7119" x="182.3435" y="693.5223">0..*</text></g><!--link Surgery to Appointment--><g class="link" data-entity-1="Surgery" data-entity-2="Appointment" data-source-line="101" data-uid="lnk16" id="link_Surgery_Appointment"><path codeLine="101" d="M269.47,590.59 C268.71,615.86 268.12,646.63 268.54,674.25 C268.68,683.83 268.91,693.92 269.17,703.86" fill="none" id="Surgery-Appointment" style="stroke:#181818;stroke-width:1;"/><text fill="#000000" font-family="sans-serif" font-size="13" lengthAdjust="spacing" textLength="50.2544" x="269.54" y="670.8184">location</text><text fill="#000000" font-family="sans-serif" font-size="13" lengthAdjust="spacing" textLength="8.2202" x="260.7065" y="610.9674">1</text><text fill="#000000" font-family="sans-serif" font-size="13" lengthAdjust="spacing" textLength="22.7119" x="245.8283" y="693.4672">0..*</text></g><!--link Patient to Bill--><g class="link" data-entity-1="Patient" data-entity-2="Bill" data-source-line="102" data-uid="lnk17" id="link_Patient_Bill"><path codeLine="102" d="M486.3,627.59 C486.52,652.95 486.75,680.16 486.95,704.09" fill="none" id="Patient-Bill" style="stroke:#181818;stroke-width:1;"/><text fill="#000000" font-family="sans-serif" font-size="13" lengthAdjust="spacing" textLength="50.8257" x="487.66" y="670.8184">invoices</text><text fill="#000000" font-family="sans-serif" font-size="13" lengthAdjust="spacing" textLength="8.2202" x="478.0509" y="647.9639">1</text><text fill="#000000" font-family="sans-serif" font-size="13" lengthAdjust="spacing" textLength="22.7119" x="463.7921" y="693.7209">0..*</text></g><!--reverse link Appointment to AppointmentRequest--><g class="link" data-entity-1="Appointment" data-entity-2="AppointmentRequest" data-source-line="103" data-uid="lnk18" id="link_Appointment_AppointmentRequest"><path codeLine="103" d="M271.54,855.49 C271.54,880.25 271.54,895.98 271.54,919.97" fill="none" id="Appointment-backto-AppointmentRequest" style="stroke:#181818;stroke-width:1;"/><polygon fill="none" points="271.54,843.49,267.54,849.49,271.54,855.49,275.54,849.49,271.54,843.49" style="stroke:#181818;stroke-width:1;"/><text fill="#000000" font-family="sans-serif" font-size="13" lengthAdjust="spacing" textLength="96.8716" x="272.54" y="886.7484">originatedFrom</text><text fill="#000000" font-family="sans-serif" font-size="13" lengthAdjust="spacing" textLength="8.2202" x="263.1575" y="863.6804">1</text><text fill="#000000" font-family="sans-serif" font-size="13" lengthAdjust="spacing" textLength="8.2202" x="263.0908" y="909.5862">1</text></g><!--reverse link User to OfficeManager--><g class="link" data-entity-1="User" data-entity-2="OfficeManager" data-source-line="104" data-uid="lnk19" id="link_User_OfficeManager"><path codeLine="104" d="M287.54,147.72 C287.54,166.52 287.54,169.65 287.54,189.98" fill="none" id="User-backto-OfficeManager" style="stroke:#181818;stroke-width:1;"/><polygon fill="none" points="287.54,129.72,281.54,147.72,293.54,147.72,287.54,129.72" style="stroke:#181818;stroke-width:1;"/></g><!--reverse link User to Dentist--><g class="link" data-entity-1="User" data-entity-2="Dentist" data-source-line="105" data-uid="lnk20" id="link_User_Dentist"><path codeLine="105" d="M184.7882,95.8451 C132.9382,113.3751 88,138.4 56.54,190.44 C7.15,272.12 31.44,384.98 57.18,459.26" fill="none" id="User-backto-Dentist" style="stroke:#181818;stroke-width:1;"/><polygon fill="none" points="201.84,90.08,182.8665,90.1611,186.7099,101.529,201.84,90.08" style="stroke:#181818;stroke-width:1;"/></g><!--reverse link User to Patient--><g class="link" data-entity-1="User" data-entity-2="Patient" data-source-line="106" data-uid="lnk21" id="link_User_Patient"><path codeLine="106" d="M388.9294,129.3013 C394.4294,132.3613 384.18,126.59 389.54,129.44 C445.57,159.14 484.61,136.86 518.54,190.44 C567.03,267 547.23,372.83 522.6,447.2" fill="none" id="User-backto-Patient" style="stroke:#181818;stroke-width:1;"/><polygon fill="none" points="373.2,120.55,386.0123,134.5444,391.8465,124.0581,373.2,120.55" style="stroke:#181818;stroke-width:1;"/></g><!--SRC=[jLNRRjf047ttLunuWbPGI9iqig96t9AIcei2v7sn1rZ5tdLsrrH9st_l-1POugHLfRvOExUTSsPdnbiU860KcqU8C5gXqWw0lkSYPef5u8TCwwunYgyIWoDVYZb_GcWxv9NPOBfUSn_7JB0DAlX1Ue3tF71XkHmDScdDbJOJ5g4BSxf9R78rXLTeCM8yj5NnLeeZBuKRhWsg0Gf3XphbAuuDss7632T3FNQXE1OEAodlkt4ikJ1Hwg3mmOK3nIq-94ZNMKeA_RMdljHxnWcTHnRhAY8KzLsgu2lJsoC-CYI6j_JTryQJ6ow85pEuu17QkGksPVeW5qV_NlUA8bSmq37wd8NyYMefXMtZkkiRlgDBUfA8C64ZBifV8evpyRyZJZKaT8D0eTQsBQ3IJjSzhimshtEktZ8zJOmsJ0JaskDXM6-yGcgUA6hxnvAKpaMRb7Y1d5M1EQPpaEMW0yjCRA-oimL5krYDaq8pp2JQwkPvfihDla9o3xhcE2w9Wsg3a0PrDTwqP2NG5PrjX9KlpoAPY3G7zLV4GXjpUjyXMAvrKWKfPjpINhvQncAwIv0g5_y2PwnmZKfXKEOWU1vDtaKfVwdiX4khodUS7HSEHHAzV9i2txp_TJXOUiCSGxyxwG-zPsawddd3HI7DXfF1Q79jtRglNd7TSZBh5dps1plGtkgrJWsQJQYrMwrtjUVLuqAvPFKV8ihHjoDAhUrxsEkfV_Om-WFD98MKgTyAePVc6u71Gb90EPzl1OJIpxRPgv2oTdQ1YvqaYYcEmmjINvawTsfL7UQ2L9mMUVhkLqf659tzDov-KenLDCjICBLq1JhIESuiPC8innxig9W47Zgja_R9QUjpVKp276DedqEdxPwUkH_FeJzOG6fkEFNhcGTQ9if722X1zcEd-8PpmtOCRca8i-KnZL7S3BwL2XYA7LTIP3_1cxlntk7iKxF73MLKX0Jkniu0rom93KNuCjsVD02Bg-Qvup6nIOYdIrtfzDDfLuzac_y6]--></g></svg>