<svg xmlns="http://www.w3.org/2000/svg" xmlns:xlink="http://www.w3.org/1999/xlink" contentStyleType="text/css" data-diagram-type="DESCRIPTION" height="489px" preserveAspectRatio="none" style="width:482px;height:489px;background:#FFFFFF;" version="1.1" viewBox="0 0 482 489" width="482px" zoomAndPan="magnify"><defs/><g><!--entity WebUI--><g class="entity" data-entity="WebUI" data-source-line="37" data-uid="ent0002" id="entity_WebUI"><rect fill="#F1F1F1" height="62.9766" rx="2.5" ry="2.5" style="stroke:#181818;stroke-width:0.5;" width="166.0684" x="14.17" y="7"/><rect fill="#F1F1F1" height="10" style="stroke:#181818;stroke-width:0.5;" width="15" x="160.2384" y="12"/><rect fill="#F1F1F1" height="2" style="stroke:#181818;stroke-width:0.5;" width="4" x="158.2384" y="14"/><rect fill="#F1F1F1" height="2" style="stroke:#181818;stroke-width:0.5;" width="4" x="158.2384" y="18"/><text fill="#000000" font-family="sans-serif" font-size="14" lengthAdjust="spacing" textLength="66.1582" x="29.17" y="40.5352">React SPA</text><text fill="#000000" font-family="sans-serif" font-size="14" lengthAdjust="spacing" textLength="126.0684" x="29.17" y="57.0234">(React, TypeScript)</text></g><!--entity Gateway--><g class="entity" data-entity="Gateway" data-source-line="38" data-uid="ent0003" id="entity_Gateway"><rect fill="#F1F1F1" height="62.9766" rx="2.5" ry="2.5" style="stroke:#181818;stroke-width:0.5;" width="122.5781" x="35.92" y="146.98"/><rect fill="#F1F1F1" height="10" style="stroke:#181818;stroke-width:0.5;" width="15" x="138.4981" y="151.98"/><rect fill="#F1F1F1" height="2" style="stroke:#181818;stroke-width:0.5;" width="4" x="136.4981" y="153.98"/><rect fill="#F1F1F1" height="2" style="stroke:#181818;stroke-width:0.5;" width="4" x="136.4981" y="157.98"/><text fill="#000000" font-family="sans-serif" font-size="14" lengthAdjust="spacing" textLength="82.5781" x="50.92" y="180.5152">API Gateway</text><text fill="#000000" font-family="sans-serif" font-size="14" lengthAdjust="spacing" textLength="52.7051" x="50.92" y="197.0034">(NGINX)</text></g><!--entity Appt--><g class="entity" data-entity="Appt" data-source-line="39" data-uid="ent0004" id="entity_Appt"><rect fill="#F1F1F1" height="62.9766" rx="2.5" ry="2.5" style="stroke:#181818;stroke-width:0.5;" width="180.4102" x="7" y="286.96"/><rect fill="#F1F1F1" height="10" style="stroke:#181818;stroke-width:0.5;" width="15" x="167.4102" y="291.96"/><rect fill="#F1F1F1" height="2" style="stroke:#181818;stroke-width:0.5;" width="4" x="165.4102" y="293.96"/><rect fill="#F1F1F1" height="2" style="stroke:#181818;stroke-width:0.5;" width="4" x="165.4102" y="297.96"/><text fill="#000000" font-family="sans-serif" font-size="14" lengthAdjust="spacing" textLength="140.4102" x="22" y="320.4952">Appointment Service</text><text fill="#000000" font-family="sans-serif" font-size="14" lengthAdjust="spacing" textLength="58.1465" x="22" y="336.9834">(FastAPI)</text></g><!--entity DB--><g class="entity" data-entity="DB" data-source-line="40" data-uid="ent0005" id="entity_DB"><path d="M48.78,436.93 C48.78,426.93 97.2048,426.93 97.2048,426.93 C97.2048,426.93 145.6296,426.93 145.6296,436.93 L145.6296,462.4183 C145.6296,472.4183 97.2048,472.4183 97.2048,472.4183 C97.2048,472.4183 48.78,472.4183 48.78,462.4183 L48.78,436.93" fill="#F1F1F1" style="stroke:#181818;stroke-width:0.5;"/><path d="M48.78,436.93 C48.78,446.93 97.2048,446.93 97.2048,446.93 C97.2048,446.93 145.6296,446.93 145.6296,436.93" fill="none" style="stroke:#181818;stroke-width:0.5;"/><text fill="#000000" font-family="sans-serif" font-size="14" lengthAdjust="spacing" textLength="76.8496" x="58.78" y="464.4652">PostgreSQL</text></g><g class="entity" data-entity="GMN9" data-source-line="47" data-uid="ent0010" id="entity_GMN9"><path d="M222.45,290.48 L222.45,314.44 L187.77,318.44 L222.45,322.44 L222.45,346.4116 A0,0 0 0 0 222.45,346.4116 L475.9583,346.4116 A0,0 0 0 0 475.9583,346.4116 L475.9583,300.48 L465.9583,290.48 L222.45,290.48 A0,0 0 0 0 222.45,290.48" fill="#FEFFDD" style="stroke:#181818;stroke-width:0.5;"/><path d="M465.9583,290.48 L465.9583,300.48 L475.9583,300.48 L465.9583,290.48" fill="#FEFFDD" style="stroke:#181818;stroke-width:0.5;"/><text fill="#000000" font-family="sans-serif" font-size="13" lengthAdjust="spacing" textLength="93.7358" x="228.45" y="308.0484">Business rules:</text><text fill="#000000" font-family="sans-serif" font-size="13" lengthAdjust="spacing" textLength="200.9541" x="228.45" y="323.3589">- Max 5 appts/week per dentist</text><text fill="#000000" font-family="sans-serif" font-size="13" lengthAdjust="spacing" textLength="232.5083" x="228.45" y="338.6695">- Block bookings if unpaid bills exist</text></g><!--link WebUI to Gateway--><g class="link" data-entity-1="WebUI" data-entity-2="Gateway" data-source-line="42" data-uid="lnk6" id="link_WebUI_Gateway"><path d="M97.21,70.46 C97.21,93.18 97.21,117.91 97.21,140.61" fill="none" id="WebUI-to-Gateway" style="stroke:#181818;stroke-width:1;"/><polygon fill="#181818" points="97.21,146.61,101.21,137.61,97.21,141.61,93.21,137.61,97.21,146.61" style="stroke:#181818;stroke-width:1;"/><text fill="#000000" font-family="sans-serif" font-size="13" lengthAdjust="spacing" textLength="77.4858" x="98.21" y="113.5484">HTTPS/REST</text></g><!--link Gateway to Appt--><g class="link" data-entity-1="Gateway" data-entity-2="Appt" data-source-line="43" data-uid="lnk7" id="link_Gateway_Appt"><path d="M97.21,210.43 C97.21,233.16 97.21,257.88 97.21,280.58" fill="none" id="Gateway-to-Appt" style="stroke:#181818;stroke-width:1;"/><polygon fill="#181818" points="97.21,286.58,101.21,277.58,97.21,281.58,93.21,277.58,97.21,286.58" style="stroke:#181818;stroke-width:1;"/><text fill="#000000" font-family="sans-serif" font-size="13" lengthAdjust="spacing" textLength="33.1792" x="98.21" y="253.5284">HTTP</text></g><!--link Appt to DB--><g class="link" data-entity-1="Appt" data-entity-2="DB" data-source-line="44" data-uid="lnk8" id="link_Appt_DB"><path d="M97.21,350.4 C97.21,373.84 97.21,399.5 97.21,420.47" fill="none" id="Appt-to-DB" style="stroke:#181818;stroke-width:1;"/><polygon fill="#181818" points="97.21,426.47,101.21,417.47,97.21,421.47,93.21,417.47,97.21,426.47" style="stroke:#181818;stroke-width:1;"/><text fill="#000000" font-family="sans-serif" font-size="13" lengthAdjust="spacing" textLength="24.0322" x="98.21" y="393.4984">SQL</text></g><!--SRC=[LP11JyCm38Nl-HLFEu74D0c9omv8gmPZ4anbAO83bxJrHhGsYMANRV-UjDiGt9pdx_avvfrrmKJJel9jy8wSQ3asXAvjRfNw5J5Qawa4EfzzkgkXla5n3AIhQ8DSZs0OxrI-BVzwPlaI2oEqDyVaMYsMguyJUHR_iI5uwwJj7vhYjwqeUHuDIvfoSYL4L6t4b8O9ezopR2Ffr-UXEy-K6ZR0U7n_IS0KJqMHwydwGHVg8lP0F-pSLKFTY_CiIMcWKiuB8Thjby1lJib0rh5rn8pODSJJf8pnOWwuWqa0J_P4EmIAgDClBCi0P8slTYYzJwVUCkm6NJgvhL7Qfc7GeGV9rUWZrGy0]--></g></svg>