<svg xmlns="http://www.w3.org/2000/svg" xmlns:xlink="http://www.w3.org/1999/xlink" contentStyleType="text/css" data-diagram-type="DESCRIPTION" height="516px" preserveAspectRatio="none" style="width:2856px;height:516px;background:#FFFFFF;" version="1.1" viewBox="0 0 2856 516" width="2856px" zoomAndPan="magnify"><defs/><g><!--cluster Presentation Layer--><g class="cluster" data-entity="Presentation Layer" data-source-line="82" data-uid="ent0002" id="cluster_Presentation Layer"><path d="M588.5,6 L723.9492,6 A3.75,3.75 0 0 1 726.4492,8.5 L733.4492,28.4883 L1174.5,28.4883 A2.5,2.5 0 0 1 1177,30.9883 L1177,90.99 A2.5,2.5 0 0 1 1174.5,93.49 L588.5,93.49 A2.5,2.5 0 0 1 586,90.99 L586,8.5 A2.5,2.5 0 0 1 588.5,6" fill="none" style="stroke:#000000;stroke-width:1.5;"/><line style="stroke:#000000;stroke-width:1.5;" x1="586" x2="733.4492" y1="28.4883" y2="28.4883"/><text fill="#000000" font-family="sans-serif" font-size="14" font-weight="bold" lengthAdjust="spacing" textLength="134.4492" x="590" y="21.5352">Presentation Layer</text></g><!--cluster API Layer--><g class="cluster" data-entity="API Layer" data-source-line="88" data-uid="ent0006" id="cluster_API Layer"><path d="M716.5,117.49 L784.752,117.49 A3.75,3.75 0 0 1 787.252,119.99 L794.252,139.9783 L1211.5,139.9783 A2.5,2.5 0 0 1 1214,142.4783 L1214,298.96 A2.5,2.5 0 0 1 1211.5,301.46 L716.5,301.46 A2.5,2.5 0 0 1 714,298.96 L714,119.99 A2.5,2.5 0 0 1 716.5,117.49" fill="none" style="stroke:#000000;stroke-width:1.5;"/><line style="stroke:#000000;stroke-width:1.5;" x1="714" x2="794.252" y1="139.9783" y2="139.9783"/><text fill="#000000" font-family="sans-serif" font-size="14" font-weight="bold" lengthAdjust="spacing" textLength="67.252" x="718" y="133.0252">API Layer</text></g><!--cluster Domain / Services Layer--><g class="cluster" data-entity="Domain . Services Layer" data-source-line="94" data-uid="ent0010" id="cluster_Domain . Services Layer"><path d="M8.5,325.46 L184.9512,325.46 A3.75,3.75 0 0 1 187.4512,327.96 L194.4512,347.9483 L1179.5,347.9483 A2.5,2.5 0 0 1 1182,350.4483 L1182,506.94 A2.5,2.5 0 0 1 1179.5,509.44 L8.5,509.44 A2.5,2.5 0 0 1 6,506.94 L6,327.96 A2.5,2.5 0 0 1 8.5,325.46" fill="none" style="stroke:#000000;stroke-width:1.5;"/><line style="stroke:#000000;stroke-width:1.5;" x1="6" x2="194.4512" y1="347.9483" y2="347.9483"/><text fill="#000000" font-family="sans-serif" font-size="14" font-weight="bold" lengthAdjust="spacing" textLength="175.4512" x="10" y="340.9952">Domain / Services Layer</text></g><!--cluster Persistence Layer--><g class="cluster" data-entity="Persistence Layer" data-source-line="104" data-uid="ent0018" id="cluster_Persistence Layer"><path d="M1208.5,421.95 L1335.4795,421.95 A3.75,3.75 0 0 1 1337.9795,424.45 L1344.9795,444.4383 L1783.5,444.4383 A2.5,2.5 0 0 1 1786,446.9383 L1786,506.94 A2.5,2.5 0 0 1 1783.5,509.44 L1208.5,509.44 A2.5,2.5 0 0 1 1206,506.94 L1206,424.45 A2.5,2.5 0 0 1 1208.5,421.95" fill="none" style="stroke:#000000;stroke-width:1.5;"/><line style="stroke:#000000;stroke-width:1.5;" x1="1206" x2="1344.9795" y1="444.4383" y2="444.4383"/><text fill="#000000" font-family="sans-serif" font-size="14" font-weight="bold" lengthAdjust="spacing" textLength="125.9795" x="1210" y="437.4852">Persistence Layer</text></g><!--cluster Integration & Infrastructure--><g class="cluster" data-entity="Integration . Infrastructure" data-source-line="110" data-uid="ent0022" id="cluster_Integration . Infrastructure"><path d="M1812.5,421.95 L2013.3281,421.95 A3.75,3.75 0 0 1 2015.8281,424.45 L2022.8281,444.4383 L2846.5,444.4383 A2.5,2.5 0 0 1 2849,446.9383 L2849,506.94 A2.5,2.5 0 0 1 2846.5,509.44 L1812.5,509.44 A2.5,2.5 0 0 1 1810,506.94 L1810,424.45 A2.5,2.5 0 0 1 1812.5,421.95" fill="none" style="stroke:#000000;stroke-width:1.5;"/><line style="stroke:#000000;stroke-width:1.5;" x1="1810" x2="2022.8281" y1="444.4383" y2="444.4383"/><text fill="#000000" font-family="sans-serif" font-size="14" font-weight="bold" lengthAdjust="spacing" textLength="199.8281" x="1814" y="437.4852">Integration &amp; Infrastructure</text></g><!--entity Web--><g class="entity" data-entity="Web" data-source-line="83" data-uid="ent0003" id="entity_Web"><rect fill="#F1F1F1" height="36.4883" rx="2.5" ry="2.5" style="stroke:#181818;stroke-width:0.5;" width="130.626" x="601.69" y="41"/><text fill="#000000" font-family="sans-serif" font-size="14" lengthAdjust="spacing" textLength="110.626" x="611.69" y="64.5352">Web App (React)</text></g><!--entity Mobile--><g class="entity" data-entity="Mobile" data-source-line="84" data-uid="ent0004" id="entity_Mobile"><rect fill="#F1F1F1" height="36.4883" rx="2.5" ry="2.5" style="stroke:#181818;stroke-width:0.5;" width="194.7607" x="767.62" y="41"/><text fill="#000000" font-family="sans-serif" font-size="14" lengthAdjust="spacing" textLength="174.7607" x="777.62" y="64.5352">Mobile App (iOS/Android)</text></g><!--entity WebForms--><g class="entity" data-entity="WebForms" data-source-line="85" data-uid="ent0005" id="entity_WebForms"><rect fill="#F1F1F1" height="36.4883" rx="2.5" ry="2.5" style="stroke:#181818;stroke-width:0.5;" width="164.2109" x="996.89" y="41"/><text fill="#000000" font-family="sans-serif" font-size="14" lengthAdjust="spacing" textLength="144.2109" x="1006.89" y="64.5352">Public Website Forms</text></g><!--entity Gateway--><g class="entity" data-entity="Gateway" data-source-line="89" data-uid="ent0007" id="entity_Gateway"><rect fill="#F1F1F1" height="36.4883" rx="2.5" ry="2.5" style="stroke:#181818;stroke-width:0.5;" width="270.6738" x="729.66" y="152.49"/><text fill="#000000" font-family="sans-serif" font-size="14" lengthAdjust="spacing" textLength="250.6738" x="739.66" y="176.0252">API Gateway / Reverse Proxy (NGINX)</text></g><!--entity REST--><g class="entity" data-entity="REST" data-source-line="90" data-uid="ent0008" id="entity_REST"><rect fill="#F1F1F1" height="36.4883" rx="2.5" ry="2.5" style="stroke:#181818;stroke-width:0.5;" width="192.0742" x="768.96" y="248.98"/><text fill="#000000" font-family="sans-serif" font-size="14" lengthAdjust="spacing" textLength="172.0742" x="778.96" y="272.5152">REST API (FastAPI / Flask)</text></g><!--entity GraphQL--><g class="entity" data-entity="GraphQL" data-source-line="91" data-uid="ent0009" id="entity_GraphQL"><rect fill="#F1F1F1" height="36.4883" rx="2.5" ry="2.5" style="stroke:#181818;stroke-width:0.5;" width="162.5771" x="1035.71" y="152.49"/><text fill="#000000" font-family="sans-serif" font-size="14" lengthAdjust="spacing" textLength="142.5771" x="1045.71" y="176.0252">GraphQL API (Apollo)</text></g><!--entity Auth--><g class="entity" data-entity="Auth" data-source-line="95" data-uid="ent0011" id="entity_Auth"><rect fill="#F1F1F1" height="36.4883" rx="2.5" ry="2.5" style="stroke:#181818;stroke-width:0.5;" width="202.0957" x="21.95" y="360.46"/><text fill="#000000" font-family="sans-serif" font-size="14" lengthAdjust="spacing" textLength="182.0957" x="31.95" y="383.9952">Auth Service (JWT/OAuth2)</text></g><!--entity ApptSvc--><g class="entity" data-entity="ApptSvc" data-source-line="96" data-uid="ent0012" id="entity_ApptSvc"><rect fill="#F1F1F1" height="36.4883" rx="2.5" ry="2.5" style="stroke:#181818;stroke-width:0.5;" width="276.5938" x="258.7" y="360.46"/><text fill="#000000" font-family="sans-serif" font-size="14" lengthAdjust="spacing" textLength="256.5938" x="268.7" y="383.9952">Appointment Service (Python/FastAPI)</text></g><!--entity UserSvc--><g class="entity" data-entity="UserSvc" data-source-line="97" data-uid="ent0013" id="entity_UserSvc"><rect fill="#F1F1F1" height="36.4883" rx="2.5" ry="2.5" style="stroke:#181818;stroke-width:0.5;" width="163.8555" x="570.07" y="360.46"/><text fill="#000000" font-family="sans-serif" font-size="14" lengthAdjust="spacing" textLength="143.8555" x="580.07" y="383.9952">User &amp; Profile Service</text></g><!--entity BillingSvc--><g class="entity" data-entity="BillingSvc" data-source-line="98" data-uid="ent0014" id="entity_BillingSvc"><rect fill="#F1F1F1" height="36.4883" rx="2.5" ry="2.5" style="stroke:#181818;stroke-width:0.5;" width="173.2207" x="992.39" y="360.46"/><text fill="#000000" font-family="sans-serif" font-size="14" lengthAdjust="spacing" textLength="153.2207" x="1002.39" y="383.9952">Billing Service (Python)</text></g><!--entity Notify--><g class="entity" data-entity="Notify" data-source-line="99" data-uid="ent0015" id="entity_Notify"><rect fill="#F1F1F1" height="36.4883" rx="2.5" ry="2.5" style="stroke:#181818;stroke-width:0.5;" width="289.1924" x="252.4" y="456.95"/><text fill="#000000" font-family="sans-serif" font-size="14" lengthAdjust="spacing" textLength="269.1924" x="262.4" y="480.4852">Notification Service (Celery / RabbitMQ)</text></g><!--entity SurgerySvc--><g class="entity" data-entity="SurgerySvc" data-source-line="100" data-uid="ent0016" id="entity_SurgerySvc"><rect fill="#F1F1F1" height="36.4883" rx="2.5" ry="2.5" style="stroke:#181818;stroke-width:0.5;" width="188.1709" x="768.91" y="360.46"/><text fill="#000000" font-family="sans-serif" font-size="14" lengthAdjust="spacing" textLength="168.1709" x="778.91" y="383.9952">Surgery/Location Service</text></g><!--entity Rules--><g class="entity" data-entity="Rules" data-source-line="101" data-uid="ent0017" id="entity_Rules"><rect fill="#F1F1F1" height="36.4883" rx="2.5" ry="2.5" style="stroke:#181818;stroke-width:0.5;" width="202.1162" x="576.94" y="456.95"/><text fill="#000000" font-family="sans-serif" font-size="14" lengthAdjust="spacing" textLength="182.1162" x="586.94" y="480.4852">Business Rules / Scheduler</text></g><!--entity PG--><g class="entity" data-entity="PG" data-source-line="105" data-uid="ent0019" id="entity_PG"><rect fill="#F1F1F1" height="36.4883" rx="2.5" ry="2.5" style="stroke:#181818;stroke-width:0.5;" width="200.1338" x="1368.93" y="456.95"/><text fill="#000000" font-family="sans-serif" font-size="14" lengthAdjust="spacing" textLength="180.1338" x="1378.93" y="480.4852">Relational DB (PostgreSQL)</text></g><!--entity Cache--><g class="entity" data-entity="Cache" data-source-line="106" data-uid="ent0020" id="entity_Cache"><rect fill="#F1F1F1" height="36.4883" rx="2.5" ry="2.5" style="stroke:#181818;stroke-width:0.5;" width="111.2598" x="1222.37" y="456.95"/><text fill="#000000" font-family="sans-serif" font-size="14" lengthAdjust="spacing" textLength="91.2598" x="1232.37" y="480.4852">Cache (Redis)</text></g><!--entity Search--><g class="entity" data-entity="Search" data-source-line="107" data-uid="ent0021" id="entity_Search"><rect fill="#F1F1F1" height="36.4883" rx="2.5" ry="2.5" style="stroke:#181818;stroke-width:0.5;" width="165.4072" x="1604.3" y="456.95"/><text fill="#000000" font-family="sans-serif" font-size="14" lengthAdjust="spacing" textLength="145.4072" x="1614.3" y="480.4852">Search (Elasticsearch)</text></g><!--entity Email--><g class="entity" data-entity="Email" data-source-line="111" data-uid="ent0023" id="entity_Email"><rect fill="#F1F1F1" height="36.4883" rx="2.5" ry="2.5" style="stroke:#181818;stroke-width:0.5;" width="169.0029" x="2663.5" y="456.95"/><text fill="#000000" font-family="sans-serif" font-size="14" lengthAdjust="spacing" textLength="149.0029" x="2673.5" y="480.4852">SMTP / Email Provider</text></g><!--entity Payment--><g class="entity" data-entity="Payment" data-source-line="112" data-uid="ent0024" id="entity_Payment"><rect fill="#F1F1F1" height="36.4883" rx="2.5" ry="2.5" style="stroke:#181818;stroke-width:0.5;" width="241.0674" x="2161.47" y="456.95"/><text fill="#000000" font-family="sans-serif" font-size="14" lengthAdjust="spacing" textLength="221.0674" x="2171.47" y="480.4852">Payment Gateway (Stripe/PayPal)</text></g><!--entity IdP--><g class="entity" data-entity="IdP" data-source-line="113" data-uid="ent0025" id="entity_IdP"><rect fill="#F1F1F1" height="36.4883" rx="2.5" ry="2.5" style="stroke:#181818;stroke-width:0.5;" width="191.1309" x="2437.43" y="456.95"/><text fill="#000000" font-family="sans-serif" font-size="14" lengthAdjust="spacing" textLength="171.1309" x="2447.43" y="480.4852">External Identity Provider</text></g><!--entity Monitor--><g class="entity" data-entity="Monitor" data-source-line="114" data-uid="ent0026" id="entity_Monitor"><rect fill="#F1F1F1" height="36.4883" rx="2.5" ry="2.5" style="stroke:#181818;stroke-width:0.5;" width="300.0273" x="1825.99" y="456.95"/><text fill="#000000" font-family="sans-serif" font-size="14" lengthAdjust="spacing" textLength="280.0273" x="1835.99" y="480.4852">Monitoring / Logging (Prometheus / ELK)</text></g><!--link Web to Gateway--><g class="link" data-entity-1="Web" data-entity-2="Gateway" data-source-line="117" data-uid="lnk27" id="link_Web_Gateway"><path d="M698.81,77.83 C735.65,98.21 790.7392,128.6668 827.6892,149.0968" fill="none" id="Web-to-Gateway" style="stroke:#181818;stroke-width:1;"/><polygon fill="#181818" points="832.94,152,826.9992,144.1446,828.5643,149.5806,823.1283,151.1457,832.94,152" style="stroke:#181818;stroke-width:1;"/></g><!--link Mobile to Gateway--><g class="link" data-entity-1="Mobile" data-entity-2="Gateway" data-source-line="118" data-uid="lnk28" id="link_Mobile_Gateway"><path d="M865,77.83 C865,98.27 865,125.77 865,146.18" fill="none" id="Mobile-to-Gateway" style="stroke:#181818;stroke-width:1;"/><polygon fill="#181818" points="865,152.18,869,143.18,865,147.18,861,143.18,865,152.18" style="stroke:#181818;stroke-width:1;"/></g><!--link WebForms to Gateway--><g class="link" data-entity-1="WebForms" data-entity-2="Gateway" data-source-line="119" data-uid="lnk29" id="link_WebForms_Gateway"><path d="M1044.62,77.83 C1004.8,98.21 944.9215,128.8371 904.9915,149.2671" fill="none" id="WebForms-to-Gateway" style="stroke:#181818;stroke-width:1;"/><polygon fill="#181818" points="899.65,152,909.4841,151.4616,904.1012,149.7226,905.8402,144.3396,899.65,152" style="stroke:#181818;stroke-width:1;"/></g><!--link Gateway to REST--><g class="link" data-entity-1="Gateway" data-entity-2="REST" data-source-line="120" data-uid="lnk30" id="link_Gateway_REST"><path d="M865,189.06 C865,206 865,225.66 865,242.68" fill="none" id="Gateway-to-REST" style="stroke:#181818;stroke-width:1;"/><polygon fill="#181818" points="865,248.68,869,239.68,865,243.68,861,239.68,865,248.68" style="stroke:#181818;stroke-width:1;"/></g><!--link REST to Auth--><g class="link" data-entity-1="REST" data-entity-2="Auth" data-source-line="121" data-uid="lnk31" id="link_REST_Auth"><path d="M768.74,271.22 C619,276.66 337.47,290.2 241,317.46 C207.8,326.85 178.1053,342.7841 154.9753,356.9641" fill="none" id="REST-to-Auth" style="stroke:#181818;stroke-width:1;"/><polygon fill="#181818" points="149.86,360.1,159.6235,358.8063,154.1227,357.4867,155.4423,351.9859,149.86,360.1" style="stroke:#181818;stroke-width:1;"/></g><!--link REST to ApptSvc--><g class="link" data-entity-1="REST" data-entity-2="ApptSvc" data-source-line="122" data-uid="lnk32" id="link_REST_ApptSvc"><path d="M768.66,278.07 C706.43,285.75 624.1,298.36 553,317.46 C512.06,328.46 472.5851,344.1239 441.4851,357.6039" fill="none" id="REST-to-ApptSvc" style="stroke:#181818;stroke-width:1;"/><polygon fill="#181818" points="435.98,359.99,445.8284,360.0809,440.5676,358.0015,442.6469,352.7407,435.98,359.99" style="stroke:#181818;stroke-width:1;"/></g><!--link REST to UserSvc--><g class="link" data-entity-1="REST" data-entity-2="UserSvc" data-source-line="123" data-uid="lnk33" id="link_REST_UserSvc"><path d="M820.21,285.87 C798.92,294.69 773.31,305.93 751,317.46 C725.8,330.49 703.3771,344.2055 683.7771,356.8055" fill="none" id="REST-to-UserSvc" style="stroke:#181818;stroke-width:1;"/><polygon fill="#181818" points="678.73,360.05,688.4636,358.5479,682.9359,357.3462,684.1376,351.8185,678.73,360.05" style="stroke:#181818;stroke-width:1;"/></g><!--link REST to BillingSvc--><g class="link" data-entity-1="REST" data-entity-2="BillingSvc" data-source-line="124" data-uid="lnk34" id="link_REST_BillingSvc"><path d="M907.27,285.92 C927.93,294.87 953.02,306.22 975,317.46 C1001.01,330.77 1024.5345,344.4373 1045.1745,356.9073" fill="none" id="REST-to-BillingSvc" style="stroke:#181818;stroke-width:1;"/><polygon fill="#181818" points="1050.31,360.01,1044.6752,351.9323,1046.0304,357.4244,1040.5383,358.7796,1050.31,360.01" style="stroke:#181818;stroke-width:1;"/></g><!--link ApptSvc to PG--><g class="link" data-entity-1="ApptSvc" data-entity-2="PG" data-source-line="125" data-uid="lnk35" id="link_ApptSvc_PG"><path d="M535.59,395.67 C541.47,396.15 547.29,396.58 553,396.95 C641.5,402.77 1265,392.3 1351,413.95 C1384.9,422.49 1415.0759,438.9279 1438.1159,453.4679" fill="none" id="ApptSvc-to-PG" style="stroke:#181818;stroke-width:1;"/><polygon fill="#181818" points="1443.19,456.67,1437.7136,448.4841,1438.9616,454.0016,1433.4441,455.2495,1443.19,456.67" style="stroke:#181818;stroke-width:1;"/></g><!--link UserSvc to PG--><g class="link" data-entity-1="UserSvc" data-entity-2="PG" data-source-line="126" data-uid="lnk36" id="link_UserSvc_PG"><path d="M734.26,394.96 C739.91,395.72 745.53,396.4 751,396.95 C883.72,410.32 1221.77,380.93 1351,413.95 C1384.87,422.61 1415.0423,439.0236 1438.0923,453.5336" fill="none" id="UserSvc-to-PG" style="stroke:#181818;stroke-width:1;"/><polygon fill="#181818" points="1443.17,456.73,1437.6844,448.5503,1438.9386,454.0663,1433.4225,455.3205,1443.17,456.73" style="stroke:#181818;stroke-width:1;"/></g><!--link BillingSvc to PG--><g class="link" data-entity-1="BillingSvc" data-entity-2="PG" data-source-line="127" data-uid="lnk37" id="link_BillingSvc_PG"><path d="M1166.06,382.99 C1220.25,386.91 1290.84,395.43 1351,413.95 C1383.76,424.04 1413.2141,439.7047 1436.4141,453.6147" fill="none" id="BillingSvc-to-PG" style="stroke:#181818;stroke-width:1;"/><polygon fill="#181818" points="1441.56,456.7,1435.898,448.6414,1437.2717,454.1289,1431.7842,455.5026,1441.56,456.7" style="stroke:#181818;stroke-width:1;"/></g><!--link ApptSvc to Cache--><g class="link" data-entity-1="ApptSvc" data-entity-2="Cache" data-source-line="128" data-uid="lnk38" id="link_ApptSvc_Cache"><path d="M535.59,395.63 C541.47,396.12 547.29,396.56 553,396.95 C622.75,401.74 1115.08,393.71 1182,413.95 C1210.63,422.61 1234.3855,438.5188 1252.8055,453.0188" fill="none" id="ApptSvc-to-Cache" style="stroke:#181818;stroke-width:1;"/><polygon fill="#181818" points="1257.52,456.73,1252.9223,448.0201,1253.5912,453.6373,1247.9741,454.3062,1257.52,456.73" style="stroke:#181818;stroke-width:1;"/></g><!--link ApptSvc to Notify--><g class="link" data-entity-1="ApptSvc" data-entity-2="Notify" data-source-line="129" data-uid="lnk39" id="link_ApptSvc_Notify"><path d="M397,397.04 C397,413.98 397,433.64 397,450.66" fill="none" id="ApptSvc-to-Notify" style="stroke:#181818;stroke-width:1;"/><polygon fill="#181818" points="397,456.66,401,447.66,397,451.66,393,447.66,397,456.66" style="stroke:#181818;stroke-width:1;"/></g><!--link Notify to Email--><g class="link" data-entity-1="Notify" data-entity-2="Email" data-source-line="130" data-uid="lnk40" id="link_Notify_Email"><path d="M433.29,456.47 C468.73,439.32 524.74,415.15 576.5,405.45 C604.51,400.2 2600.73,399.06 2628.5,405.45 C2665.96,414.07 2698.5267,435.4856 2721.2467,453.0856" fill="none" id="Notify-to-Email" style="stroke:#181818;stroke-width:1;"/><polygon fill="#181818" points="2725.99,456.76,2721.3246,448.0862,2722.0373,453.698,2716.4255,454.4106,2725.99,456.76" style="stroke:#181818;stroke-width:1;"/></g><!--link BillingSvc to Payment--><g class="link" data-entity-1="BillingSvc" data-entity-2="Payment" data-source-line="131" data-uid="lnk41" id="link_BillingSvc_Payment"><path d="M1166.1,380.62 C1403.42,383.37 2049.99,392.74 2144,413.95 C2182.51,422.64 2218.3,439.2275 2245.53,453.6775" fill="none" id="BillingSvc-to-Payment" style="stroke:#181818;stroke-width:1;"/><polygon fill="#181818" points="2250.83,456.49,2244.755,448.7379,2246.4134,454.1462,2241.005,455.8046,2250.83,456.49" style="stroke:#181818;stroke-width:1;"/></g><!--link ApptSvc to Rules--><g class="link" data-entity-1="ApptSvc" data-entity-2="Rules" data-source-line="132" data-uid="lnk42" id="link_ApptSvc_Rules"><path d="M500.52,397.39 C520.19,401.92 540.43,407.41 559,413.95 C590.89,425.18 619.8977,440.2182 643.4177,453.6282" fill="none" id="ApptSvc-to-Rules" style="stroke:#181818;stroke-width:1;"/><polygon fill="#181818" points="648.63,456.6,642.7927,448.6674,644.2864,454.1235,638.8303,455.6171,648.63,456.6" style="stroke:#181818;stroke-width:1;"/></g><!--link SurgerySvc to PG--><g class="link" data-entity-1="SurgerySvc" data-entity-2="PG" data-source-line="133" data-uid="lnk43" id="link_SurgerySvc_PG"><path d="M957.32,394.97 C963.29,395.71 969.22,396.38 975,396.95 C1058.23,405.22 1270.14,392.56 1351,413.95 C1384.58,422.83 1414.5085,439.0256 1437.5885,453.4156" fill="none" id="SurgerySvc-to-PG" style="stroke:#181818;stroke-width:1;"/><polygon fill="#181818" points="1442.68,456.59,1437.1591,448.434,1438.4371,453.9446,1432.9265,455.2226,1442.68,456.59" style="stroke:#181818;stroke-width:1;"/></g><!--link REST to Search--><g class="link" data-entity-1="REST" data-entity-2="Search" data-source-line="134" data-uid="lnk44" id="link_REST_Search"><path d="M961.49,276.07 C1103.17,290.14 1373.79,326.8 1587,413.95 C1614.39,425.15 1638.1209,439.7779 1657.7009,453.1979" fill="none" id="REST-to-Search" style="stroke:#181818;stroke-width:1;"/><polygon fill="#181818" points="1662.65,456.59,1657.4877,448.2025,1658.5257,453.7633,1652.9649,454.8013,1662.65,456.59" style="stroke:#181818;stroke-width:1;"/></g><!--reverse link Monitor to REST--><g class="link" data-entity-1="Monitor" data-entity-2="REST" data-source-line="135" data-uid="lnk45" id="link_Monitor_REST"><path d="M1916.8661,454.6283 C1878.9061,442.2383 1832.36,427.42 1786,413.95 C1624.87,367.14 1586.28,346.41 1421,317.46 C1261.12,289.46 1072.43,277.02 961.08,271.77" fill="none" id="Monitor-backto-REST" style="stroke:#181818;stroke-width:1;"/><polygon fill="#181818" points="1922.57,456.49,1915.2554,449.8949,1917.8168,454.9386,1912.7731,457.5,1922.57,456.49" style="stroke:#181818;stroke-width:1;"/></g><!--reverse link Monitor to ApptSvc--><g class="link" data-entity-1="Monitor" data-entity-2="ApptSvc" data-source-line="136" data-uid="lnk46" id="link_Monitor_ApptSvc"><path d="M1927.1386,454.3095 C1889.1886,439.7395 1837.75,422.33 1786,413.95 C1650.75,392.07 689.75,405.43 553,396.95 C547.29,396.6 541.46,396.19 535.59,395.73" fill="none" id="Monitor-backto-ApptSvc" style="stroke:#181818;stroke-width:1;"/><polygon fill="#181818" points="1932.74,456.46,1925.7716,449.5,1928.0722,454.6679,1922.9043,456.9685,1932.74,456.46" style="stroke:#181818;stroke-width:1;"/></g><!--SRC=[PLLDJzj04BtxLumu87C80LeeYgfAG48KSC340IfLFMoS8LdXx5gxwvIewd_lx8Vj9DnstxoPdOytjdxdecIAhI2Ngr8A52Opcm91OMwOM1GOHG0boz_P0k4WLQY9mWoN0XAsGNK0Vua0yEiLPt1LbX1FaENcw3Sm3OHvurZEE0LrTlwOTQ_4N4a-zonlzCIqcXKyjuwQ6uHRgLQw3kKkHFktaz9LEjhBn293Pl0Fsq0N9hX6fH5I9Jys43yCHmy__Rk1uvqcWsmArZE-PThOGnTk2wRVFTUQFN6eMBbyIZptgfH58KCuR_YKO5-k61SKBaErvZdg_NGhiwnj4D-zJhkF5ZhpKUqnyCfISc5MrF-MdcxCKefko3cubAN9rhdtUjQeuD1M_sOd41mTpveQtZKl2YuM-v5zn61io0_Iy3UUUnaq7ZTOe78jPxCPD-Cdx-p8eSjPfHR4wIPorzaHWx5DgT9SeARcLmLrZHgOBt5EP-L7Oj5FtKvfs5mR59JHRfydMBWtMG7zQwfFQhDGc3qbFirqw6atZ5wnAfvpxIqE2VaZK_aIuW4fm_1SkwjdUTEdV4R2u4BvOWzX9DuKUQegDvN29hLiF4sflW49fR2ZMlDvAD91OJNOnis-bdQS6SLBx1AUiY8KuJdUOV1XKDboHtF2kDdiXXxDqtev1JTIsUbt8P6BXJt5n5sXMM9bEpz8xkjTTTowJBlqdSwFhLKAcxuBrikx1zULM3Gic5j3Um-wR- -Dg1kerMy3xGWrk3Y3csvmQ86MtcBRNlNajx56plxWi7fA-_6QQMm7g7NRohrzl2caKLDeE7plTEeURKDjMw8eBPWmp-C4x0VFwktq-EpaxFpuMpnscrR2oIMSdlJEBtfVBk6cFmLhFehYOPg0bfMYbI7HawfcbTNhKNJ7repo9V6ii0UF9Ogx_dqDm42ikPB2bNZtCcu95ryxrzn_fEZZypAE-lZ6giAGHoxdrA0UF4zlEvTHGd-OYjQa1oYY6qbnrOPisNy0]--></g></svg>