<svg xmlns="http://www.w3.org/2000/svg" xmlns:xlink="http://www.w3.org/1999/xlink" contentStyleType="text/css" data-diagram-type="DESCRIPTION" height="850px" preserveAspectRatio="none" style="width:1312px;height:850px;background:#FFFFFF;" version="1.1" viewBox="0 0 1312 850" width="1312px" zoomAndPan="magnify"><defs/><g><!--cluster Presentation--><g class="cluster" data-entity="Presentation" data-source-line="7" data-uid="ent0002" id="cluster_Presentation"><rect fill="#DDDDFF" height="265" rx="2.5" ry="2.5" style="stroke:#181818;stroke-width:1;" width="178.63" x="102.41" y="263"/><text fill="#000000" font-family="sans-serif" font-size="14" font-weight="bold" lengthAdjust="spacing" textLength="134.4492" x="124.5004" y="278.5352">Presentation Layer</text></g><!--cluster API--><g class="cluster" data-entity="API" data-source-line="13" data-uid="ent0006" id="cluster_API"><rect fill="#CCEECC" height="158" rx="2.5" ry="2.5" style="stroke:#181818;stroke-width:1;" width="392.99" x="421.45" y="291"/><text fill="#000000" font-family="sans-serif" font-size="14" font-weight="bold" lengthAdjust="spacing" textLength="67.252" x="584.319" y="306.5352">API Layer</text></g><!--cluster Domain--><g class="cluster" data-entity="Domain" data-source-line="19" data-uid="ent0010" id="cluster_Domain"><rect fill="#FFEFAA" height="513" rx="2.5" ry="2.5" style="stroke:#181818;stroke-width:1;" width="239.25" x="842.44" y="7"/><text fill="#000000" font-family="sans-serif" font-size="14" font-weight="bold" lengthAdjust="spacing" textLength="131.7354" x="896.1973" y="22.5352">Domain / Services</text></g><!--cluster Persist--><g class="cluster" data-entity="Persist" data-source-line="29" data-uid="ent0018" id="cluster_Persist"><rect fill="#FFDDDD" height="239" rx="2.5" ry="2.5" style="stroke:#181818;stroke-width:1;" width="197" x="1109.69" y="73"/><text fill="#000000" font-family="sans-serif" font-size="14" font-weight="bold" lengthAdjust="spacing" textLength="82.2637" x="1167.0582" y="88.5352">Persistence</text></g><!--cluster Infra--><g class="cluster" data-entity="Infra" data-source-line="35" data-uid="ent0022" id="cluster_Infra"><rect fill="#F0F0F0" height="300" rx="2.5" ry="2.5" style="stroke:#181818;stroke-width:1;" width="201" x="861.56" y="544"/><text fill="#000000" font-family="sans-serif" font-size="14" font-weight="bold" lengthAdjust="spacing" textLength="141.709" x="891.2055" y="559.5352">Integrations &amp; Infra</text></g><!--entity Web--><g class="entity" data-entity="Web" data-source-line="8" data-uid="ent0003" id="entity_Web"><rect fill="#F1F1F1" height="36.4883" rx="2.5" ry="2.5" style="stroke:#181818;stroke-width:0.5;" width="130.626" x="126.41" y="467.76"/><text fill="#000000" font-family="sans-serif" font-size="14" lengthAdjust="spacing" textLength="110.626" x="136.41" y="491.2952">Web App (React)</text></g><!--entity Mobile--><g class="entity" data-entity="Mobile" data-source-line="9" data-uid="ent0004" id="entity_Mobile"><rect fill="#F1F1F1" height="36.4883" rx="2.5" ry="2.5" style="stroke:#181818;stroke-width:0.5;" width="97.0752" x="143.19" y="396.76"/><text fill="#000000" font-family="sans-serif" font-size="14" lengthAdjust="spacing" textLength="77.0752" x="153.19" y="420.2952">Mobile App</text></g><!--entity WebForms--><g class="entity" data-entity="WebForms" data-source-line="10" data-uid="ent0005" id="entity_WebForms"><rect fill="#F1F1F1" height="36.4883" rx="2.5" ry="2.5" style="stroke:#181818;stroke-width:0.5;" width="112.1416" x="135.66" y="325.76"/><text fill="#000000" font-family="sans-serif" font-size="14" lengthAdjust="spacing" textLength="92.1416" x="145.66" y="349.2952">Website Form</text></g><!--entity Gateway--><g class="entity" data-entity="Gateway" data-source-line="14" data-uid="ent0007" id="entity_Gateway"><rect fill="#F1F1F1" height="36.4883" rx="2.5" ry="2.5" style="stroke:#181818;stroke-width:0.5;" width="159.7129" x="437.45" y="396.76"/><text fill="#000000" font-family="sans-serif" font-size="14" lengthAdjust="spacing" textLength="139.7129" x="447.45" y="420.2952">API Gateway (NGINX)</text></g><!--entity REST--><g class="entity" data-entity="REST" data-source-line="15" data-uid="ent0008" id="entity_REST"><rect fill="#F1F1F1" height="36.4883" rx="2.5" ry="2.5" style="stroke:#181818;stroke-width:0.5;" width="141.2695" x="657.17" y="396.76"/><text fill="#000000" font-family="sans-serif" font-size="14" lengthAdjust="spacing" textLength="121.2695" x="667.17" y="420.2952">REST API (FastAPI)</text></g><!--entity GraphQL--><g class="entity" data-entity="GraphQL" data-source-line="16" data-uid="ent0009" id="entity_GraphQL"><rect fill="#F1F1F1" height="36.4883" rx="2.5" ry="2.5" style="stroke:#181818;stroke-width:0.5;" width="148.7139" x="442.95" y="325.76"/><text fill="#000000" font-family="sans-serif" font-size="14" lengthAdjust="spacing" textLength="128.7139" x="452.95" y="349.2952">GraphQL (optional)</text></g><!--entity Auth--><g class="entity" data-entity="Auth" data-source-line="20" data-uid="ent0011" id="entity_Auth"><rect fill="#F1F1F1" height="36.4883" rx="2.5" ry="2.5" style="stroke:#181818;stroke-width:0.5;" width="202.0957" x="861.01" y="467.76"/><text fill="#000000" font-family="sans-serif" font-size="14" lengthAdjust="spacing" textLength="182.0957" x="871.01" y="491.2952">Auth Service (JWT/OAuth2)</text></g><!--entity ApptSvc--><g class="entity" data-entity="ApptSvc" data-source-line="21" data-uid="ent0012" id="entity_ApptSvc"><rect fill="#F1F1F1" height="36.4883" rx="2.5" ry="2.5" style="stroke:#181818;stroke-width:0.5;" width="160.4102" x="881.86" y="396.76"/><text fill="#000000" font-family="sans-serif" font-size="14" lengthAdjust="spacing" textLength="140.4102" x="891.86" y="420.2952">Appointment Service</text></g><!--entity UserSvc--><g class="entity" data-entity="UserSvc" data-source-line="22" data-uid="ent0013" id="entity_UserSvc"><rect fill="#F1F1F1" height="36.4883" rx="2.5" ry="2.5" style="stroke:#181818;stroke-width:0.5;" width="152.5762" x="885.77" y="112.76"/><text fill="#000000" font-family="sans-serif" font-size="14" lengthAdjust="spacing" textLength="132.5762" x="895.77" y="136.2952">User/Profile Service</text></g><!--entity BillingSvc--><g class="entity" data-entity="BillingSvc" data-source-line="23" data-uid="ent0014" id="entity_BillingSvc"><rect fill="#F1F1F1" height="36.4883" rx="2.5" ry="2.5" style="stroke:#181818;stroke-width:0.5;" width="113.4199" x="905.35" y="183.76"/><text fill="#000000" font-family="sans-serif" font-size="14" lengthAdjust="spacing" textLength="93.4199" x="915.35" y="207.2952">Billing Service</text></g><!--entity Notify--><g class="entity" data-entity="Notify" data-source-line="24" data-uid="ent0015" id="entity_Notify"><rect fill="#F1F1F1" height="36.4883" rx="2.5" ry="2.5" style="stroke:#181818;stroke-width:0.5;" width="207.25" x="858.44" y="254.76"/><text fill="#000000" font-family="sans-serif" font-size="14" lengthAdjust="spacing" textLength="187.25" x="868.44" y="278.2952">Notification Worker (Celery)</text></g><!--entity SurgerySvc--><g class="entity" data-entity="SurgerySvc" data-source-line="25" data-uid="ent0016" id="entity_SurgerySvc"><rect fill="#F1F1F1" height="36.4883" rx="2.5" ry="2.5" style="stroke:#181818;stroke-width:0.5;" width="188.1709" x="867.98" y="41.76"/><text fill="#000000" font-family="sans-serif" font-size="14" lengthAdjust="spacing" textLength="168.1709" x="877.98" y="65.2952">Surgery/Location Service</text></g><!--entity Rules--><g class="entity" data-entity="Rules" data-source-line="26" data-uid="ent0017" id="entity_Rules"><rect fill="#F1F1F1" height="36.4883" rx="2.5" ry="2.5" style="stroke:#181818;stroke-width:0.5;" width="202.1162" x="861" y="325.76"/><text fill="#000000" font-family="sans-serif" font-size="14" lengthAdjust="spacing" textLength="182.1162" x="871" y="349.2952">Business Rules / Scheduler</text></g><!--entity PG--><g class="entity" data-entity="PG" data-source-line="30" data-uid="ent0019" id="entity_PG"><path d="M1159.76,189.26 C1159.76,179.26 1208.1848,179.26 1208.1848,179.26 C1208.1848,179.26 1256.6096,179.26 1256.6096,189.26 L1256.6096,214.7483 C1256.6096,224.7483 1208.1848,224.7483 1208.1848,224.7483 C1208.1848,224.7483 1159.76,224.7483 1159.76,214.7483 L1159.76,189.26" fill="#F1F1F1" style="stroke:#181818;stroke-width:0.5;"/><path d="M1159.76,189.26 C1159.76,199.26 1208.1848,199.26 1208.1848,199.26 C1208.1848,199.26 1256.6096,199.26 1256.6096,189.26" fill="none" style="stroke:#181818;stroke-width:0.5;"/><text fill="#000000" font-family="sans-serif" font-size="14" lengthAdjust="spacing" textLength="76.8496" x="1169.76" y="216.7952">PostgreSQL</text></g><!--entity Cache--><g class="entity" data-entity="Cache" data-source-line="31" data-uid="ent0020" id="entity_Cache"><rect fill="#F1F1F1" height="36.4883" rx="2.5" ry="2.5" style="stroke:#181818;stroke-width:0.5;" width="151.2227" x="1132.58" y="259.76"/><text fill="#000000" font-family="sans-serif" font-size="14" lengthAdjust="spacing" textLength="131.2227" x="1142.58" y="283.2952">Redis (cache/locks)</text></g><!--entity Search--><g class="entity" data-entity="Search" data-source-line="32" data-uid="ent0021" id="entity_Search"><rect fill="#F1F1F1" height="36.4883" rx="2.5" ry="2.5" style="stroke:#181818;stroke-width:0.5;" width="165.0039" x="1125.69" y="107.76"/><text fill="#000000" font-family="sans-serif" font-size="14" lengthAdjust="spacing" textLength="145.0039" x="1135.69" y="131.2952">Elasticsearch (search)</text></g><!--entity Email--><g class="entity" data-entity="Email" data-source-line="36" data-uid="ent0023" id="entity_Email"><rect fill="#F1F1F1" height="36.4883" rx="2.5" ry="2.5" style="stroke:#181818;stroke-width:0.5;" width="169.0029" x="877.56" y="791.76"/><text fill="#000000" font-family="sans-serif" font-size="14" lengthAdjust="spacing" textLength="149.0029" x="887.56" y="815.2952">SMTP / Email Provider</text></g><!--entity Payment--><g class="entity" data-entity="Payment" data-source-line="37" data-uid="ent0024" id="entity_Payment"><rect fill="#F1F1F1" height="36.4883" rx="2.5" ry="2.5" style="stroke:#181818;stroke-width:0.5;" width="138.7266" x="892.7" y="720.76"/><text fill="#000000" font-family="sans-serif" font-size="14" lengthAdjust="spacing" textLength="118.7266" x="902.7" y="744.2952">Payment Gateway</text></g><!--entity IdP--><g class="entity" data-entity="IdP" data-source-line="38" data-uid="ent0025" id="entity_IdP"><rect fill="#F1F1F1" height="36.4883" rx="2.5" ry="2.5" style="stroke:#181818;stroke-width:0.5;" width="157.1016" x="883.51" y="578.76"/><text fill="#000000" font-family="sans-serif" font-size="14" lengthAdjust="spacing" textLength="137.1016" x="893.51" y="602.2952">External IdP (OAuth)</text></g><!--entity Monitor--><g class="entity" data-entity="Monitor" data-source-line="39" data-uid="ent0026" id="entity_Monitor"><rect fill="#F1F1F1" height="36.4883" rx="2.5" ry="2.5" style="stroke:#181818;stroke-width:0.5;" width="165.6123" x="879.26" y="649.76"/><text fill="#000000" font-family="sans-serif" font-size="14" lengthAdjust="spacing" textLength="145.6123" x="889.26" y="673.2952">Monitoring / Logging</text></g><g class="entity" data-entity="GMN46" data-source-line="70" data-uid="ent0047" id="entity_GMN46"><path d="M6,183.03 L6,238.9616 L377.4541,238.9616 L377.4541,193.03 L367.4541,183.03 L6,183.03" fill="#FEFFDD" style="stroke:#181818;stroke-width:0.5;"/><path d="M367.4541,183.03 L367.4541,193.03 L377.4541,193.03 L367.4541,183.03" fill="#FEFFDD" style="stroke:#181818;stroke-width:1;"/><text fill="#000000" font-family="sans-serif" font-size="13" lengthAdjust="spacing" textLength="40.4346" x="12" y="200.5984">Notes:</text><text fill="#000000" font-family="sans-serif" font-size="13" lengthAdjust="spacing" textLength="258.9463" x="12" y="215.9089">- Vertical layout reduces arrow crossings</text><text fill="#000000" font-family="sans-serif" font-size="13" lengthAdjust="spacing" textLength="350.4541" x="12" y="231.2195">- Use DB constraints + locks to prevent race conditions</text></g><!--link Web to Gateway--><g class="link" data-entity-1="Web" data-entity-2="Gateway" data-source-line="43" data-uid="lnk27" id="link_Web_Gateway"><path d="M252.69,467.43 C252.69,449.21 252.69,424.12 252.69,424.12 C252.69,424.12 353.31,424.12 431.2,424.12" fill="none" id="Web-to-Gateway" style="stroke:#181818;stroke-width:1;"/><polygon fill="#181818" points="437.2,424.12,428.2,420.12,432.2,424.12,428.2,428.12,437.2,424.12" style="stroke:#181818;stroke-width:1;"/><text fill="#000000" font-family="sans-serif" font-size="13" lengthAdjust="spacing" textLength="40.1807" x="282.29" y="437.6884">HTTPS</text></g><!--link Mobile to Gateway--><g class="link" data-entity-1="Mobile" data-entity-2="Gateway" data-source-line="44" data-uid="lnk28" id="link_Mobile_Gateway"><path d="M240.47,415 C292.45,415 369.6,415 431.22,415" fill="none" id="Mobile-to-Gateway" style="stroke:#181818;stroke-width:1;"/><polygon fill="#181818" points="437.22,415,428.22,411,432.22,415,428.22,419,437.22,415" style="stroke:#181818;stroke-width:1;"/><text fill="#000000" font-family="sans-serif" font-size="13" lengthAdjust="spacing" textLength="40.1807" x="339.84" y="428.5684">HTTPS</text></g><!--link WebForms to Gateway--><g class="link" data-entity-1="WebForms" data-entity-2="Gateway" data-source-line="45" data-uid="lnk29" id="link_WebForms_Gateway"><path d="M243.69,362.57 C243.69,380.79 243.69,405.88 243.69,405.88 C243.69,405.88 350.33,405.88 431.06,405.88" fill="none" id="WebForms-to-Gateway" style="stroke:#181818;stroke-width:1;"/><polygon fill="#181818" points="437.06,405.88,428.06,401.88,432.06,405.88,428.06,409.88,437.06,405.88" style="stroke:#181818;stroke-width:1;"/><text fill="#000000" font-family="sans-serif" font-size="13" lengthAdjust="spacing" textLength="40.1807" x="277.72" y="419.4484">HTTPS</text></g><!--link Gateway to REST--><g class="link" data-entity-1="Gateway" data-entity-2="REST" data-source-line="47" data-uid="lnk30" id="link_Gateway_REST"><path d="M597.49,415 C617.01,415 631.75,415 650.81,415" fill="none" id="Gateway-to-REST" style="stroke:#181818;stroke-width:1;"/><polygon fill="#181818" points="656.81,415,647.81,411,651.81,415,647.81,419,656.81,415" style="stroke:#181818;stroke-width:1;"/></g><!--link REST to ApptSvc--><g class="link" data-entity-1="REST" data-entity-2="ApptSvc" data-source-line="48" data-uid="lnk31" id="link_REST_ApptSvc"><path d="M798.72,411.35 C824.85,411.35 848.63,411.35 875.54,411.35" fill="none" id="REST-to-ApptSvc" style="stroke:#181818;stroke-width:1;"/><polygon fill="#181818" points="881.54,411.35,872.54,407.35,876.54,411.35,872.54,415.35,881.54,411.35" style="stroke:#181818;stroke-width:1;"/></g><!--link REST to Auth--><g class="link" data-entity-1="REST" data-entity-2="Auth" data-source-line="49" data-uid="lnk32" id="link_REST_Auth"><path d="M798.9,418.65 C835.15,418.65 871.69,418.65 871.69,418.65 C871.69,418.65 871.69,441.65 871.69,461.6" fill="none" id="REST-to-Auth" style="stroke:#181818;stroke-width:1;"/><polygon fill="#181818" points="871.69,467.6,875.69,458.6,871.69,462.6,867.69,458.6,871.69,467.6" style="stroke:#181818;stroke-width:1;"/><text fill="#000000" font-family="sans-serif" font-size="13" lengthAdjust="spacing" textLength="28.1772" x="830.77" y="432.2184">auth</text></g><!--link REST to UserSvc--><g class="link" data-entity-1="REST" data-entity-2="UserSvc" data-source-line="50" data-uid="lnk33" id="link_REST_UserSvc"><path d="M704.69,396.37 C704.69,333.18 704.69,131 704.69,131 C704.69,131 803.67,131 879.54,131" fill="none" id="REST-to-UserSvc" style="stroke:#181818;stroke-width:1;"/><polygon fill="#181818" points="885.54,131,876.54,127,880.54,131,876.54,135,885.54,131" style="stroke:#181818;stroke-width:1;"/></g><!--link REST to BillingSvc--><g class="link" data-entity-1="REST" data-entity-2="BillingSvc" data-source-line="51" data-uid="lnk34" id="link_REST_BillingSvc"><path d="M751.69,396.32 C751.69,343.34 751.69,195.92 751.69,195.92 C751.69,195.92 836.56,195.92 898.85,195.92" fill="none" id="REST-to-BillingSvc" style="stroke:#181818;stroke-width:1;"/><polygon fill="#181818" points="904.85,195.92,895.85,191.92,899.85,195.92,895.85,199.92,904.85,195.92" style="stroke:#181818;stroke-width:1;"/></g><!--link ApptSvc to PG--><g class="link" data-entity-1="ApptSvc" data-entity-2="PG" data-source-line="53" data-uid="lnk35" id="link_ApptSvc_PG"><path d="M1042.69,408.92 C1075.43,408.92 1105.69,408.92 1105.69,408.92 C1105.69,408.92 1105.69,212.95 1105.69,212.95 C1105.69,212.95 1126.94,212.95 1153.34,212.95" fill="none" id="ApptSvc-to-PG" style="stroke:#181818;stroke-width:1;"/><polygon fill="#181818" points="1159.34,212.95,1150.34,208.95,1154.34,212.95,1150.34,216.95,1159.34,212.95" style="stroke:#181818;stroke-width:1;"/></g><!--link UserSvc to PG--><g class="link" data-entity-1="UserSvc" data-entity-2="PG" data-source-line="54" data-uid="lnk36" id="link_UserSvc_PG"><path d="M1028.69,149.4 C1028.69,169.35 1028.69,198.35 1028.69,198.35 C1028.69,198.35 1100.45,198.35 1153.61,198.35" fill="none" id="UserSvc-to-PG" style="stroke:#181818;stroke-width:1;"/><polygon fill="#181818" points="1159.61,198.35,1150.61,194.35,1154.61,198.35,1150.61,202.35,1159.61,198.35" style="stroke:#181818;stroke-width:1;"/></g><!--link BillingSvc to PG--><g class="link" data-entity-1="BillingSvc" data-entity-2="PG" data-source-line="55" data-uid="lnk37" id="link_BillingSvc_PG"><path d="M1019.15,205.65 C1061.61,205.65 1112.95,205.65 1153.3,205.65" fill="none" id="BillingSvc-to-PG" style="stroke:#181818;stroke-width:1;"/><polygon fill="#181818" points="1159.3,205.65,1150.3,201.65,1154.3,205.65,1150.3,209.65,1159.3,205.65" style="stroke:#181818;stroke-width:1;"/></g><!--link SurgerySvc to PG--><g class="link" data-entity-1="SurgerySvc" data-entity-2="PG" data-source-line="56" data-uid="lnk38" id="link_SurgerySvc_PG"><path d="M1047.69,78.5 C1047.69,114.62 1047.69,191.05 1047.69,191.05 C1047.69,191.05 1106.36,191.05 1153.6,191.05" fill="none" id="SurgerySvc-to-PG" style="stroke:#181818;stroke-width:1;"/><polygon fill="#181818" points="1159.6,191.05,1150.6,187.05,1154.6,191.05,1150.6,195.05,1159.6,191.05" style="stroke:#181818;stroke-width:1;"/></g><!--link ApptSvc to Cache--><g class="link" data-entity-1="ApptSvc" data-entity-2="Cache" data-source-line="58" data-uid="lnk39" id="link_ApptSvc_Cache"><path d="M1042.49,421.08 C1114.13,421.08 1207.69,421.08 1207.69,421.08 C1207.69,421.08 1207.69,341.49 1207.69,302.71" fill="none" id="ApptSvc-to-Cache" style="stroke:#181818;stroke-width:1;"/><polygon fill="#181818" points="1207.69,296.71,1203.69,305.71,1207.69,301.71,1211.69,305.71,1207.69,296.71" style="stroke:#181818;stroke-width:1;"/><text fill="#000000" font-family="sans-serif" font-size="13" lengthAdjust="spacing" textLength="75.2515" x="1111.28" y="434.6484">cache/locks</text></g><!--link ApptSvc to Notify--><g class="link" data-entity-1="ApptSvc" data-entity-2="Notify" data-source-line="59" data-uid="lnk40" id="link_ApptSvc_Notify"><path d="M881.47,404.05 C860.51,404.05 843.69,404.05 843.69,404.05 C843.69,404.05 843.69,290 843.69,290 C843.69,290 843.35,290 852.21,290" fill="none" id="ApptSvc-to-Notify" style="stroke:#181818;stroke-width:1;"/><polygon fill="#181818" points="858.21,290,849.21,286,853.21,290,849.21,294,858.21,290" style="stroke:#181818;stroke-width:1;"/><text fill="#000000" font-family="sans-serif" font-size="13" lengthAdjust="spacing" textLength="54.1138" x="788.69" y="372.2284">enqueue</text></g><!--link Notify to Email--><g class="link" data-entity-1="Notify" data-entity-2="Email" data-source-line="60" data-uid="lnk41" id="link_Notify_Email"><path d="M1066.1,275.5 C1077.84,275.5 1085.69,275.5 1085.69,275.5 C1085.69,275.5 1085.69,810 1085.69,810 C1085.69,810 1074.49,810 1052.91,810" fill="none" id="Notify-to-Email" style="stroke:#181818;stroke-width:1;"/><polygon fill="#181818" points="1046.91,810,1055.91,814,1051.91,810,1055.91,806,1046.91,810" style="stroke:#181818;stroke-width:1;"/><text fill="#000000" font-family="sans-serif" font-size="13" lengthAdjust="spacing" textLength="30.1196" x="1054.69" y="565.9084">send</text></g><!--link BillingSvc to Payment--><g class="link" data-entity-1="BillingSvc" data-entity-2="Payment" data-source-line="62" data-uid="lnk42" id="link_BillingSvc_Payment"><path d="M905.12,208.08 C863.28,208.08 813.69,208.08 813.69,208.08 C813.69,208.08 813.69,739 813.69,739 C813.69,739 847.74,739 886.22,739" fill="none" id="BillingSvc-to-Payment" style="stroke:#181818;stroke-width:1;"/><polygon fill="#181818" points="892.22,739,883.22,735,887.22,739,883.22,743,892.22,739" style="stroke:#181818;stroke-width:1;"/><text fill="#000000" font-family="sans-serif" font-size="13" lengthAdjust="spacing" textLength="61.0898" x="751.69" y="480.6584">payments</text></g><!--link ApptSvc to Rules--><g class="link" data-entity-1="ApptSvc" data-entity-2="Rules" data-source-line="63" data-uid="lnk43" id="link_ApptSvc_Rules"><path d="M961.69,396.35 C961.69,385.83 961.69,378.74 961.69,368.28" fill="none" id="ApptSvc-to-Rules" style="stroke:#181818;stroke-width:1;"/><polygon fill="#181818" points="961.69,362.28,957.69,371.28,961.69,367.28,965.69,371.28,961.69,362.28" style="stroke:#181818;stroke-width:1;"/><text fill="#000000" font-family="sans-serif" font-size="13" lengthAdjust="spacing" textLength="52.2603" x="908.69" y="392.8784">evaluate</text></g><!--link REST to Monitor--><g class="link" data-entity-1="REST" data-entity-2="Monitor" data-source-line="66" data-uid="lnk44" id="link_REST_Monitor"><path d="M727.69,433.63 C727.69,493.04 727.69,674.08 727.69,674.08 C727.69,674.08 805.41,674.08 872.77,674.08" fill="none" id="REST-to-Monitor" style="stroke:#181818;stroke-width:1;"/><polygon fill="#181818" points="878.77,674.08,869.77,670.08,873.77,674.08,869.77,678.08,878.77,674.08" style="stroke:#181818;stroke-width:1;"/></g><!--link ApptSvc to Monitor--><g class="link" data-entity-1="ApptSvc" data-entity-2="Monitor" data-source-line="67" data-uid="lnk45" id="link_ApptSvc_Monitor"><path d="M881.4,425.95 C853.31,425.95 828.69,425.95 828.69,425.95 C828.69,425.95 828.69,661.92 828.69,661.92 C828.69,661.92 845.99,661.92 873.11,661.92" fill="none" id="ApptSvc-to-Monitor" style="stroke:#181818;stroke-width:1;"/><polygon fill="#181818" points="879.11,661.92,870.11,657.92,874.11,661.92,870.11,665.92,879.11,661.92" style="stroke:#181818;stroke-width:1;"/></g><!--link Presentation to GMN46--><g class="link" data-entity-1="Presentation" data-entity-2="GMN46" data-source-line="70" data-uid="lnk48" id="link_Presentation_GMN46"><path d="M191.69,262.9415 C191.69,262.8604 191.69,262.7791 191.69,262.6978 C191.69,262.5352 191.69,262.3722 191.69,262.209 C191.69,261.8825 191.69,261.5549 191.69,261.2262 C191.69,260.5688 191.69,259.9071 191.69,259.2419 C191.69,257.9116 191.69,256.5673 191.69,255.2156 C191.69,249.8087 191.69,244.2825 191.69,239.05" fill="none" id="Presentation-GMN46" style="stroke:#181818;stroke-width:1;stroke-dasharray:7,7;"/></g><!--SRC=[TLN1RkCs4BtpAmO9qDMY2BpeqOS2MSTElV1clIktwPMMnZ8HcbH9obctwBztXfGKIUx6Xv2FZyEduPkXVr6cbawUeB2dsXeq8GyNZU2m2D9K6eNlALeP39SQmRfmj4BZ8K2mu5Hr350gtgAi4U8T_Exx28sM3lRIb9wv1-iAX3Ewe0gfmGTPKFWAQ1rEogYJ-XkXSDPxGaKl0cws3Zs9atm2REG5tGr83oFuze7-LYluHy3Rvy3DC-xXlguX-uQo2E_ZFiB6fCzsh-WSuiNrDBsAurL0M5btweBms8j_nL3g_NOzKCYpsyLYkLmifi9uwL46V9KNo9uUrqz_9d4jDYP_M-Qx62nRIHzeaBWCZucFJjR7hnl8RCrPaReDck29rWTxaih0379qPrMWZzmMlLsjbglx-olPJJXsVCW-FUzcNnZw9Pt3mmc_hgqouSIJTbjYrdN8pyMOJCvniwsp1xwD8PiNhjWVbTPido6nnQwuJpQe0xakMkNPkXTqa2rGexiavP4moNhUk8e8iurjDmvFQXUlLJNaNlHqEOr6pyajZbZIE3aYefDxsABpoWSqRUXspbV0fevNKCeWzz8ps_fGESo_RXBvSM8LB9M7h91qx4pRuiMd3rmmCAOkDPb95HwbAuwGfV-9dSVnHEVQ1AnSJ8M7ds1j3av6TXoHt0_ycpec_xpRKXgMv2fD9MlFgcnp4Q4nUIilqIfj5QGlJDX4-_U0ZlmDwt8BMVHWKaxpQN4R5QnZfynWOwkAHcsPnmN-o7UmiCQa5aR9QtpRvYek8N2s2NsVekph2vJsrRnALyvI_wFc9izMbNttUY-uyTmnxUxNlixdyDjkjyr5ssz-jDorbXyIH0TqXDW8OfFeaAw-4XXLCihLEmV9PJgYTmKs0WV59Dfu_HhPhjqpXDvs3D6tKXcYRo4xTT6Y96_WtMjIAbHYeVchmGP52_I4PBGvqDDGYf6YZj6PR0vr6ltFCQbwwPIpr0rbcpqoSf9EJc8ZyONJTVQF85ccDyIUtZZ0igAY7rz5vxwhaxi5OIozDtiRWZs1FOnUEt8uVJRwEGtku8_kHTNoGbQbnxTig9k3TCw-zfRqaSkFyyD7gW_ZWwC-7ppy337LhBbsUERCE4dTdJYbYXKXA9N0SiH_]--></g></svg>